  0
SECTION
  2
HEADER
  9
$ACADVER
  1
AC1014
  9
$HANDSEED
  5
FFFF
  9
$MEASUREMENT
 70
     1
  0
ENDSEC
  0
SECTION
  2
TABLES
  0
TABLE
  2
VPORT
  5
8
330
0
100
AcDbSymbolTable
 70
     4
  0
VPORT
  5
2E
330
8
100
AcDbSymbolTableRecord
100
AcDbViewportTableRecord
  2
*ACTIVE
 70
     0
 10
0.0
 20
0.0
 11
1.0
 21
1.0
 12
210.0
 22
148.5
 13
0.0
 23
0.0
 14
10.0
 24
10.0
 15
10.0
 25
10.0
 16
0.0
 26
0.0
 36
1.0
 17
0.0
 27
0.0
 37
0.0
 40
341.0
 41
1.24
 42
50.0
 43
0.0
 44
0.0
 50
0.0
 51
0.0
 71
     0
 72
   100
 73
     1
 74
     3
 75
     0
 76
     0
 77
     0
 78
     0
  0
ENDTAB
  0
TABLE
  2
LTYPE
  5
5
330
0
100
AcDbSymbolTable
 70
     1
  0
LTYPE
  5
14
330
5
100
AcDbSymbolTableRecord
100
AcDbLinetypeTableRecord
  2
BYBLOCK
 70
     0
  3

 72
    65
 73
     0
 40
0.0
  0
LTYPE
  5
15
330
5
100
AcDbSymbolTableRecord
100
AcDbLinetypeTableRecord
  2
BYLAYER
 70
     0
  3

 72
    65
 73
     0
 40
0.0
  0
LTYPE
  5
16
330
5
100
AcDbSymbolTableRecord
100
AcDbLinetypeTableRecord
  2
CONTINUOUS
 70
     0
  3
Solid line
 72
    65
 73
     0
 40
0.0
  0
ENDTAB
  0
TABLE
  2
LAYER
  5
2
100
AcDbSymbolTable
 70
2
  0
LAYER
  5
50
100
AcDbSymbolTableRecord
100
AcDbLayerTableRecord
  2
0
 70
0
  6
CONTINUOUS
  0
LAYER
  5
51
100
AcDbSymbolTableRecord
100
AcDbLayerTableRecord
  2
ink_ext_XXXXXX
 70
0
  6
CONTINUOUS
  0
ENDTAB
  0
TABLE
  2
STYLE
  5
3
330
0
100
AcDbSymbolTable
 70
     1
  0
STYLE
  5
11
330
3
100
AcDbSymbolTableRecord
100
AcDbTextStyleTableRecord
  2
STANDARD
 70
     0
 40
0.0
 41
1.0
 50
0.0
 71
     0
 42
2.5
  3
txt
  4

  0
ENDTAB
  0
TABLE
  2
VIEW
  5
6
330
0
100
AcDbSymbolTable
 70
     0
  0
ENDTAB
  0
TABLE
  2
UCS
  5
7
330
0
100
AcDbSymbolTable
 70
     0
  0
ENDTAB
  0
TABLE
  2
APPID
  5
9
330
0
100
AcDbSymbolTable
 70
     2
  0
APPID
  5
12
330
9
100
AcDbSymbolTableRecord
100
AcDbRegAppTableRecord
  2
ACAD
 70
     0
  0
ENDTAB
  0
TABLE
  2
DIMSTYLE
  5
A
330
0
100
AcDbSymbolTable
 70
     1
  0
DIMSTYLE
105
27
330
A
100
AcDbSymbolTableRecord
100
AcDbDimStyleTableRecord
  2
ISO-25
 70
     0
  3

  4

  5

  6

  7

 40
1.0
 41
2.5
 42
0.625
 43
3.75
 44
1.25
 45
0.0
 46
0.0
 47
0.0
 48
0.0
140
2.5
141
2.5
142
0.0
143
0.03937007874016
144
1.0
145
0.0
146
1.0
147
0.625
 71
     0
 72
     0
 73
     0
 74
     0
 75
     0
 76
     0
 77
     1
 78
     8
170
     0
171
     3
172
     1
173
     0
174
     0
175
     0
176
     0
177
     0
178
     0
270
     2
271
     2
272
     2
273
     2
274
     3
340
11
275
     0
280
     0
281
     0
282
     0
283
     0
284
     8
285
     0
286
     0
287
     3
288
     0
  0
ENDTAB
  0
TABLE
  2
BLOCK_RECORD
  5
1
330
0
100
AcDbSymbolTable
 70
     1
  0
BLOCK_RECORD
  5
1F
330
1
100
AcDbSymbolTableRecord
100
AcDbBlockTableRecord
  2
*MODEL_SPACE
  0
BLOCK_RECORD
  5
1B
330
1
100
AcDbSymbolTableRecord
100
AcDbBlockTableRecord
  2
*PAPER_SPACE
  0
ENDTAB
  0
ENDSEC
  0
SECTION
  2
BLOCKS
  0
BLOCK
  5
20
330
1F
100
AcDbEntity
  8
0
100
AcDbBlockBegin
  2
*MODEL_SPACE
 70
     0
 10
0.0
 20
0.0
 30
0.0
  3
*MODEL_SPACE
  1

  0
ENDBLK
  5
21
330
1F
100
AcDbEntity
  8
0
100
AcDbBlockEnd
  0
BLOCK
  5
1C
330
1B
100
AcDbEntity
 67
     1
  8
0
100
AcDbBlockBegin
  2
*PAPER_SPACE
  1

  0
ENDBLK
  5
1D
330
1B
100
AcDbEntity
 67
     1
  8
0
100
AcDbBlockEnd
  0
ENDSEC
  0
SECTION
  2
ENTITIES
  0
LWPOLYLINE
  5
100
100
AcDbEntity
  8
ink_ext_XXXXXX
 62
7
100
AcDbPolyline
 90
12
 70
0
 10
5.722468
 20
89.206352
 30
0.0
 10
7.247879
 20
91.194149
 30
0.0
 10
9.235782
 20
92.719490
 30
0.0
 10
11.550357
 20
93.678340
 30
0.0
 10
14.034618
 20
94.005365
 30
0.0
 10
16.518879
 20
93.678340
 30
0.0
 10
18.833454
 20
92.719490
 30
0.0
 10
20.821357
 20
91.194149
 30
0.0
 10
22.346416
 20
89.206352
 30
0.0
 10
23.305266
 20
86.891495
 30
0.0
 10
23.632643
 20
84.407446
 30
0.0
 10
23.305266
 20
81.923255
 30
0.0
  0
LWPOLYLINE
  5
101
100
AcDbEntity
  8
ink_ext_XXXXXX
 62
7
100
AcDbPolyline
 90
6
 70
0
 10
7.247879
 20
77.620742
 30
0.0
 10
5.722468
 20
79.608433
 30
0.0
 10
4.763618
 20
81.923255
 30
0.0
 10
4.436593
 20
84.407446
 30
0.0
 10
4.763618
 20
86.891495
 30
0.0
 10
5.722468
 20
89.206352
 30
0.0
  0
LWPOLYLINE
  5
102
100
AcDbEntity
  8
ink_ext_XXXXXX
 62
7
100
AcDbPolyline
 90
6
 70
0
 10
92.998985
 20
89.206352
 30
0.0
 10
93.957835
 20
86.891495
 30
0.0
 10
94.284860
 20
84.407446
 30
0.0
 10
93.957835
 20
81.923255
 30
0.0
 10
92.998985
 20
79.608433
 30
0.0
 10
91.473574
 20
77.620742
 30
0.0
  0
LWPOLYLINE
  5
103
100
AcDbEntity
  8
ink_ext_XXXXXX
 62
7
100
AcDbPolyline
 90
12
 70
0
 10
75.416188
 20
81.923255
 30
0.0
 10
75.088810
 20
84.407446
 30
0.0
 10
75.416188
 20
86.891495
 30
0.0
 10
76.374685
 20
89.206352
 30
0.0
 10
77.900096
 20
91.194149
 30
0.0
 10
79.887999
 20
92.719490
 30
0.0
 10
82.202927
 20
93.678340
 30
0.0
 10
84.686835
 20
94.005365
 30
0.0
 10
87.171096
 20
93.678340
 30
0.0
 10
89.485671
 20
92.719490
 30
0.0
 10
91.473574
 20
91.194149
 30
0.0
 10
92.998985
 20
89.206352
 30
0.0
  0
LWPOLYLINE
  5
104
100
AcDbEntity
  8
ink_ext_XXXXXX
 62
7
100
AcDbPolyline
 90
10
 70
0
 10
49.360727
 20
13.622831
 30
0.0
 10
46.876466
 20
13.949856
 30
0.0
 10
44.561891
 20
14.908706
 30
0.0
 10
42.573988
 20
16.433765
 30
0.0
 10
41.048929
 20
18.421667
 30
0.0
 10
40.089727
 20
20.736595
 30
0.0
 10
39.762702
 20
23.220856
 30
0.0
 10
40.089727
 20
25.705117
 30
0.0
 10
41.048929
 20
28.019692
 30
0.0
 10
42.573988
 20
30.007595
 30
0.0
  0
LWPOLYLINE
  5
105
100
AcDbEntity
  8
ink_ext_XXXXXX
 62
7
100
AcDbPolyline
 90
10
 70
0
 10
56.147466
 20
30.007595
 30
0.0
 10
57.672877
 20
28.019692
 30
0.0
 10
58.631727
 20
25.705117
 30
0.0
 10
58.958399
 20
23.220856
 30
0.0
 10
58.631727
 20
20.736595
 30
0.0
 10
57.672877
 20
18.421667
 30
0.0
 10
56.147466
 20
16.433765
 30
0.0
 10
54.159563
 20
14.908706
 30
0.0
 10
51.844988
 20
13.949856
 30
0.0
 10
49.360727
 20
13.622831
 30
0.0
  0
LWPOLYLINE
  5
106
100
AcDbEntity
  8
ink_ext_XXXXXX
 62
7
100
AcDbPolyline
 90
13
 70
0
 10
7.247879
 20
77.620742
 30
0.0
 10
7.730127
 20
77.106180
 30
0.0
 10
8.177802
 20
76.561738
 30
0.0
 10
8.589493
 20
75.989145
 30
0.0
 10
8.963085
 20
75.391363
 30
0.0
 10
9.297518
 20
74.770544
 30
0.0
 10
9.590677
 20
74.129512
 30
0.0
 10
9.841854
 20
73.470523
 30
0.0
 10
10.049641
 20
72.797070
 30
0.0
 10
10.213682
 20
72.110917
 30
0.0
 10
10.332921
 20
71.416298
 30
0.0
 10
10.407004
 20
70.714976
 30
0.0
 10
10.435227
 20
70.010479
 30
0.0
  0
LWPOLYLINE
  5
107
100
AcDbEntity
  8
ink_ext_XXXXXX
 62
7
100
AcDbPolyline
 90
13
 70
0
 10
20.821357
 20
77.620742
 30
0.0
 10
20.339110
 20
77.106180
 30
0.0
 10
19.891435
 20
76.561738
 30
0.0
 10
19.479743
 20
75.989145
 30
0.0
 10
19.106152
 20
75.391363
 30
0.0
 10
18.771718
 20
74.770544
 30
0.0
 10
18.478560
 20
74.129512
 30
0.0
 10
18.227382
 20
73.470523
 30
0.0
 10
18.019243
 20
72.797070
 30
0.0
 10
17.855554
 20
72.110917
 30
0.0
 10
17.735963
 20
71.416298
 30
0.0
 10
17.662232
 20
70.714976
 30
0.0
 10
17.633657
 20
70.010479
 30
0.0
  0
LWPOLYLINE
  5
108
100
AcDbEntity
  8
ink_ext_XXXXXX
 62
7
100
AcDbPolyline
 90
13
 70
0
 10
81.087796
 20
70.010479
 30
0.0
 10
81.059221
 20
70.714976
 30
0.0
 10
80.985138
 20
71.416298
 30
0.0
 10
80.865899
 20
72.110917
 30
0.0
 10
80.702210
 20
72.797070
 30
0.0
 10
80.494071
 20
73.470523
 30
0.0
 10
80.242893
 20
74.129512
 30
0.0
 10
79.949735
 20
74.770544
 30
0.0
 10
79.615302
 20
75.391363
 30
0.0
 10
79.241710
 20
75.989145
 30
0.0
 10
78.830018
 20
76.561738
 30
0.0
 10
78.382343
 20
77.106180
 30
0.0
 10
77.900096
 20
77.620742
 30
0.0
  0
LWPOLYLINE
  5
109
100
AcDbEntity
  8
ink_ext_XXXXXX
 62
7
100
AcDbPolyline
 90
13
 70
0
 10
88.285874
 20
70.010479
 30
0.0
 10
88.314449
 20
70.714976
 30
0.0
 10
88.388532
 20
71.416298
 30
0.0
 10
88.507418
 20
72.110917
 30
0.0
 10
88.671813
 20
72.797070
 30
0.0
 10
88.879599
 20
73.470523
 30
0.0
 10
89.130777
 20
74.129512
 30
0.0
 10
89.423935
 20
74.770544
 30
0.0
 10
89.758368
 20
75.391363
 30
0.0
 10
90.131960
 20
75.989145
 30
0.0
 10
90.543652
 20
76.561738
 30
0.0
 10
90.991327
 20
77.106180
 30
0.0
 10
91.473574
 20
77.620742
 30
0.0
  0
LWPOLYLINE
  5
10a
100
AcDbEntity
  8
ink_ext_XXXXXX
 62
7
100
AcDbPolyline
 90
10
 70
0
 10
42.573988
 20
30.007595
 30
0.0
 10
43.056235
 20
30.521945
 30
0.0
 10
43.503910
 20
31.066634
 30
0.0
 10
43.915602
 20
31.638840
 30
0.0
 10
44.289193
 20
32.236798
 30
0.0
 10
44.623627
 20
32.857687
 30
0.0
 10
44.916785
 20
33.498684
 30
0.0
 10
45.167963
 20
34.157673
 30
0.0
 10
45.376102
 20
34.831126
 30
0.0
 10
45.539791
 20
35.516926
 30
0.0
  0
LWPOLYLINE
  5
10b
100
AcDbEntity
  8
ink_ext_XXXXXX
 62
7
100
AcDbPolyline
 90
3
 70
0
 10
45.659029
 20
36.211898
 30
0.0
 10
45.733113
 20
36.913220
 30
0.0
 10
45.761335
 20
37.617717
 30
0.0
  0
LWPOLYLINE
  5
10c
100
AcDbEntity
  8
ink_ext_XXXXXX
 62
7
100
AcDbPolyline
 90
13
 70
0
 10
56.147466
 20
30.007595
 30
0.0
 10
55.659574
 20
30.518065
 30
0.0
 10
55.206960
 20
31.059579
 30
0.0
 10
54.791388
 20
31.630373
 30
0.0
 10
54.414268
 20
32.227626
 30
0.0
 10
54.078071
 20
32.848162
 30
0.0
 10
53.783854
 20
33.490217
 30
0.0
 10
53.532677
 20
34.149912
 30
0.0
 10
53.326302
 20
34.825129
 30
0.0
 10
53.165082
 20
35.512692
 30
0.0
 10
53.050077
 20
36.209076
 30
0.0
 10
52.981638
 20
36.911809
 30
0.0
 10
52.960118
 20
37.617717
 30
0.0
  0
LWPOLYLINE
  5
10d
100
AcDbEntity
  8
ink_ext_XXXXXX
 62
7
100
AcDbPolyline
 90
2
 70
0
 10
61.357993
 20
81.328648
 30
0.0
 10
37.363460
 20
81.328648
 30
0.0
  0
LWPOLYLINE
  5
10e
100
AcDbEntity
  8
ink_ext_XXXXXX
 62
7
100
AcDbPolyline
 90
4
 70
0
 10
35.454579
 20
67.738237
 30
0.0
 10
35.739977
 20
68.848429
 30
0.0
 10
36.002796
 20
69.964265
 30
0.0
 10
36.242685
 20
71.085392
 30
0.0
  0
LWPOLYLINE
  5
10f
100
AcDbEntity
  8
ink_ext_XXXXXX
 62
7
100
AcDbPolyline
 90
9
 70
0
 10
36.459643
 20
72.211106
 30
0.0
 10
36.653671
 20
73.341406
 30
0.0
 10
36.824768
 20
74.474881
 30
0.0
 10
36.972582
 20
75.611849
 30
0.0
 10
37.097466
 20
76.751497
 30
0.0
 10
37.198713
 20
77.893474
 30
0.0
 10
37.277029
 20
79.037392
 30
0.0
 10
37.331710
 20
80.182544
 30
0.0
 10
37.363460
 20
81.328648
 30
0.0
  0
LWPOLYLINE
  5
110
100
AcDbEntity
  8
ink_ext_XXXXXX
 62
7
100
AcDbPolyline
 90
4
 70
0
 10
63.266874
 20
67.738237
 30
0.0
 10
62.981477
 20
68.848429
 30
0.0
 10
62.718657
 20
69.964265
 30
0.0
 10
62.478768
 20
71.085392
 30
0.0
  0
LWPOLYLINE
  5
111
100
AcDbEntity
  8
ink_ext_XXXXXX
 62
7
100
AcDbPolyline
 90
9
 70
0
 10
62.261810
 20
72.211106
 30
0.0
 10
62.067782
 20
73.341406
 30
0.0
 10
61.896685
 20
74.474881
 30
0.0
 10
61.748871
 20
75.611849
 30
0.0
 10
61.623988
 20
76.751497
 30
0.0
 10
61.522741
 20
77.893474
 30
0.0
 10
61.444424
 20
79.037392
 30
0.0
 10
61.389391
 20
80.182544
 30
0.0
 10
61.357993
 20
81.328648
 30
0.0
  0
LWPOLYLINE
  5
112
100
AcDbEntity
  8
ink_ext_XXXXXX
 62
7
100
AcDbPolyline
 90
5
 70
0
 10
81.087796
 20
70.010479
 30
0.0
 10
80.811924
 20
67.864179
 30
0.0
 10
80.035107
 20
65.844173
 30
0.0
 10
78.801796
 20
64.065820
 30
0.0
 10
77.182193
 20
62.630720
 30
0.0
  0
LWPOLYLINE
  5
113
100
AcDbEntity
  8
ink_ext_XXXXXX
 62
7
100
AcDbPolyline
 90
2
 70
0
 10
75.268374
 20
61.620365
 30
0.0
 10
73.169699
 20
61.092256
 30
0.0
  0
LWPOLYLINE
  5
114
100
AcDbEntity
  8
ink_ext_XXXXXX
 62
7
100
AcDbPolyline
 90
6
 70
0
 10
71.005760
 20
61.076734
 30
0.0
 10
68.899677
 20
61.574504
 30
0.0
 10
66.971746
 20
62.557342
 30
0.0
 10
65.331329
 20
63.969159
 30
0.0
 10
64.072618
 20
65.729520
 30
0.0
 10
63.266874
 20
67.738237
 30
0.0
  0
LWPOLYLINE
  5
115
100
AcDbEntity
  8
ink_ext_XXXXXX
 62
7
100
AcDbPolyline
 90
5
 70
0
 10
17.633657
 20
70.010479
 30
0.0
 10
17.909529
 20
67.864179
 30
0.0
 10
18.686346
 20
65.844173
 30
0.0
 10
19.919657
 20
64.065820
 30
0.0
 10
21.539260
 20
62.630720
 30
0.0
  0
LWPOLYLINE
  5
116
100
AcDbEntity
  8
ink_ext_XXXXXX
 62
7
100
AcDbPolyline
 90
2
 70
0
 10
23.453079
 20
61.620365
 30
0.0
 10
25.551754
 20
61.092256
 30
0.0
  0
LWPOLYLINE
  5
117
100
AcDbEntity
  8
ink_ext_XXXXXX
 62
7
100
AcDbPolyline
 90
6
 70
0
 10
27.715693
 20
61.076734
 30
0.0
 10
29.821777
 20
61.574504
 30
0.0
 10
31.750060
 20
62.557342
 30
0.0
 10
33.390124
 20
63.969159
 30
0.0
 10
34.648835
 20
65.729520
 30
0.0
 10
35.454579
 20
67.738237
 30
0.0
  0
LWPOLYLINE
  5
118
100
AcDbEntity
  8
ink_ext_XXXXXX
 62
7
100
AcDbPolyline
 90
12
 70
0
 10
25.597616
 20
55.042470
 30
0.0
 10
23.493649
 20
55.287298
 30
0.0
 10
21.440129
 20
55.808351
 30
0.0
 10
19.473746
 20
56.596456
 30
0.0
 10
17.628718
 20
57.637504
 30
0.0
 10
15.937854
 20
58.913148
 30
0.0
 10
14.430435
 20
60.401165
 30
0.0
 10
13.132918
 20
62.075801
 30
0.0
 10
12.068235
 20
63.907423
 30
0.0
 10
11.254729
 20
65.863223
 30
0.0
 10
10.707218
 20
67.909687
 30
0.0
 10
10.435227
 20
70.010479
 30
0.0
  0
LWPOLYLINE
  5
119
100
AcDbEntity
  8
ink_ext_XXXXXX
 62
7
100
AcDbPolyline
 90
12
 70
0
 10
73.123838
 20
55.042470
 30
0.0
 10
75.227804
 20
55.287298
 30
0.0
 10
77.281324
 20
55.808351
 30
0.0
 10
79.247707
 20
56.596456
 30
0.0
 10
81.092382
 20
57.637504
 30
0.0
 10
82.783599
 20
58.913148
 30
0.0
 10
84.291018
 20
60.401165
 30
0.0
 10
85.588535
 20
62.075801
 30
0.0
 10
86.653571
 20
63.907423
 30
0.0
 10
87.466724
 20
65.863223
 30
0.0
 10
88.014235
 20
67.909687
 30
0.0
 10
88.285874
 20
70.010479
 30
0.0
  0
LWPOLYLINE
  5
11a
100
AcDbEntity
  8
ink_ext_XXXXXX
 62
7
100
AcDbPolyline
 90
6
 70
0
 10
27.715693
 20
55.077748
 30
0.0
 10
28.960293
 20
54.999431
 30
0.0
 10
30.201718
 20
54.880898
 30
0.0
 10
31.438557
 20
54.722501
 30
0.0
 10
32.669752
 20
54.524592
 30
0.0
 10
32.863074
 20
54.486845
 30
0.0
  0
LWPOLYLINE
  5
11b
100
AcDbEntity
  8
ink_ext_XXXXXX
 62
7
100
AcDbPolyline
 90
5
 70
0
 10
65.994904
 20
54.823042
 30
0.0
 10
67.241621
 20
54.975442
 30
0.0
 10
68.494335
 20
55.069281
 30
0.0
 10
69.749871
 20
55.103148
 30
0.0
 10
71.005760
 20
55.077748
 30
0.0
  0
LWPOLYLINE
  5
11c
100
AcDbEntity
  8
ink_ext_XXXXXX
 62
7
100
AcDbPolyline
 90
2
 70
0
 10
65.439985
 20
54.728498
 30
0.0
 10
65.994904
 20
54.823042
 30
0.0
  0
LWPOLYLINE
  5
11d
100
AcDbEntity
  8
ink_ext_XXXXXX
 62
7
100
AcDbPolyline
 90
13
 70
0
 10
32.863074
 20
54.486845
 30
0.0
 10
34.668591
 20
53.891004
 30
0.0
 10
36.398613
 20
53.102192
 30
0.0
 10
38.032327
 20
52.129937
 30
0.0
 10
39.551035
 20
50.985879
 30
0.0
 10
40.936041
 20
49.683776
 30
0.0
 10
42.171468
 20
48.238445
 30
0.0
 10
43.242502
 20
46.667526
 30
0.0
 10
44.136088
 20
44.989362
 30
0.0
 10
44.841996
 20
43.224062
 30
0.0
 10
45.352113
 20
41.392440
 30
0.0
 10
45.659735
 20
39.516367
 30
0.0
 10
45.761335
 20
37.617717
 30
0.0
  0
LWPOLYLINE
  5
11e
100
AcDbEntity
  8
ink_ext_XXXXXX
 62
7
100
AcDbPolyline
 90
13
 70
0
 10
52.960118
 20
37.617717
 30
0.0
 10
53.015857
 20
39.513898
 30
0.0
 10
53.278324
 20
41.392440
 30
0.0
 10
53.743638
 20
43.231117
 30
0.0
 10
54.406860
 20
45.008412
 30
0.0
 10
55.259524
 20
46.702804
 30
0.0
 10
56.292104
 20
48.294184
 30
0.0
 10
57.491902
 20
49.763151
 30
0.0
 10
58.844452
 20
51.093123
 30
0.0
 10
60.334232
 20
52.267167
 30
0.0
 10
61.942899
 20
53.272231
 30
0.0
 10
63.651754
 20
54.095967
 30
0.0
 10
65.439985
 20
54.728498
 30
0.0
  0
LWPOLYLINE
  5
11f
100
AcDbEntity
  8
ink_ext_XXXXXX
 62
7
100
AcDbPolyline
 90
3
 70
0
 10
23.305266
 20
81.923255
 30
0.0
 10
22.346416
 20
79.608433
 30
0.0
 10
20.821357
 20
77.620742
 30
0.0
  0
LWPOLYLINE
  5
120
100
AcDbEntity
  8
ink_ext_XXXXXX
 62
7
100
AcDbPolyline
 90
3
 70
0
 10
77.900096
 20
77.620742
 30
0.0
 10
76.374685
 20
79.608433
 30
0.0
 10
75.416188
 20
81.923255
 30
0.0
  0
LWPOLYLINE
  5
121
100
AcDbEntity
  8
ink_ext_XXXXXX
 62
7
100
AcDbPolyline
 90
2
 70
0
 10
45.539791
 20
35.516926
 30
0.0
 10
45.659029
 20
36.211898
 30
0.0
  0
LWPOLYLINE
  5
122
100
AcDbEntity
  8
ink_ext_XXXXXX
 62
7
100
AcDbPolyline
 90
2
 70
0
 10
36.242685
 20
71.085392
 30
0.0
 10
36.459643
 20
72.211106
 30
0.0
  0
LWPOLYLINE
  5
123
100
AcDbEntity
  8
ink_ext_XXXXXX
 62
7
100
AcDbPolyline
 90
2
 70
0
 10
62.478768
 20
71.085392
 30
0.0
 10
62.261810
 20
72.211106
 30
0.0
  0
LWPOLYLINE
  5
124
100
AcDbEntity
  8
ink_ext_XXXXXX
 62
7
100
AcDbPolyline
 90
2
 70
0
 10
77.182193
 20
62.630720
 30
0.0
 10
75.268374
 20
61.620365
 30
0.0
  0
LWPOLYLINE
  5
125
100
AcDbEntity
  8
ink_ext_XXXXXX
 62
7
100
AcDbPolyline
 90
2
 70
0
 10
73.169699
 20
61.092256
 30
0.0
 10
71.005760
 20
61.076734
 30
0.0
  0
LWPOLYLINE
  5
126
100
AcDbEntity
  8
ink_ext_XXXXXX
 62
7
100
AcDbPolyline
 90
2
 70
0
 10
21.539260
 20
62.630720
 30
0.0
 10
23.453079
 20
61.620365
 30
0.0
  0
LWPOLYLINE
  5
127
100
AcDbEntity
  8
ink_ext_XXXXXX
 62
7
100
AcDbPolyline
 90
2
 70
0
 10
25.551754
 20
61.092256
 30
0.0
 10
27.715693
 20
61.076734
 30
0.0
  0
LWPOLYLINE
  5
128
100
AcDbEntity
  8
ink_ext_XXXXXX
 62
7
100
AcDbPolyline
 90
2
 70
0
 10
27.715693
 20
55.077748
 30
0.0
 10
25.597616
 20
55.042470
 30
0.0
  0
LWPOLYLINE
  5
129
100
AcDbEntity
  8
ink_ext_XXXXXX
 62
7
100
AcDbPolyline
 90
2
 70
0
 10
71.005760
 20
55.077748
 30
0.0
 10
73.123838
 20
55.042470
 30
0.0
  0
LWPOLYLINE
  5
12a
100
AcDbEntity
  8
ink_ext_XXXXXX
 62
7
100
AcDbPolyline
 90
12
 70
0
 10
154.768338
 20
18.414579
 30
0.0
 10
153.242927
 20
16.426783
 30
0.0
 10
151.255024
 20
14.901442
 30
0.0
 10
148.940449
 20
13.942592
 30
0.0
 10
146.456188
 20
13.615567
 30
0.0
 10
143.971927
 20
13.942592
 30
0.0
 10
141.657352
 20
14.901442
 30
0.0
 10
139.669449
 20
16.426783
 30
0.0
 10
138.144390
 20
18.414579
 30
0.0
 10
137.185540
 20
20.729437
 30
0.0
 10
136.858163
 20
23.213486
 30
0.0
 10
137.185540
 20
25.697677
 30
0.0
  0
LWPOLYLINE
  5
12b
100
AcDbEntity
  8
ink_ext_XXXXXX
 62
7
100
AcDbPolyline
 90
6
 70
0
 10
153.242927
 20
30.000190
 30
0.0
 10
154.768338
 20
28.012499
 30
0.0
 10
155.727188
 20
25.697677
 30
0.0
 10
156.054213
 20
23.213486
 30
0.0
 10
155.727188
 20
20.729437
 30
0.0
 10
154.768338
 20
18.414579
 30
0.0
  0
LWPOLYLINE
  5
12c
100
AcDbEntity
  8
ink_ext_XXXXXX
 62
7
100
AcDbPolyline
 90
6
 70
0
 10
67.491821
 20
18.414579
 30
0.0
 10
66.532971
 20
20.729437
 30
0.0
 10
66.205946
 20
23.213486
 30
0.0
 10
66.532971
 20
25.697677
 30
0.0
 10
67.491821
 20
28.012499
 30
0.0
 10
69.017232
 20
30.000190
 30
0.0
  0
LWPOLYLINE
  5
12d
100
AcDbEntity
  8
ink_ext_XXXXXX
 62
7
100
AcDbPolyline
 90
12
 70
0
 10
85.074618
 20
25.697677
 30
0.0
 10
85.401996
 20
23.213486
 30
0.0
 10
85.074618
 20
20.729437
 30
0.0
 10
84.116121
 20
18.414579
 30
0.0
 10
82.590710
 20
16.426783
 30
0.0
 10
80.602807
 20
14.901442
 30
0.0
 10
78.287879
 20
13.942592
 30
0.0
 10
75.803971
 20
13.615567
 30
0.0
 10
73.319710
 20
13.942592
 30
0.0
 10
71.005135
 20
14.901442
 30
0.0
 10
69.017232
 20
16.426783
 30
0.0
 10
67.491821
 20
18.414579
 30
0.0
  0
LWPOLYLINE
  5
12e
100
AcDbEntity
  8
ink_ext_XXXXXX
 62
7
100
AcDbPolyline
 90
10
 70
0
 10
111.130079
 20
93.998100
 30
0.0
 10
113.614340
 20
93.671075
 30
0.0
 10
115.928915
 20
92.712225
 30
0.0
 10
117.916818
 20
91.187167
 30
0.0
 10
119.441877
 20
89.199264
 30
0.0
 10
120.401079
 20
86.884336
 30
0.0
 10
120.728104
 20
84.400075
 30
0.0
 10
120.401079
 20
81.915814
 30
0.0
 10
119.441877
 20
79.601239
 30
0.0
 10
117.916818
 20
77.613336
 30
0.0
  0
LWPOLYLINE
  5
12f
100
AcDbEntity
  8
ink_ext_XXXXXX
 62
7
100
AcDbPolyline
 90
10
 70
0
 10
104.343340
 20
77.613336
 30
0.0
 10
102.817929
 20
79.601239
 30
0.0
 10
101.859079
 20
81.915814
 30
0.0
 10
101.532407
 20
84.400075
 30
0.0
 10
101.859079
 20
86.884336
 30
0.0
 10
102.817929
 20
89.199264
 30
0.0
 10
104.343340
 20
91.187167
 30
0.0
 10
106.331243
 20
92.712225
 30
0.0
 10
108.645818
 20
93.671075
 30
0.0
 10
111.130079
 20
93.998100
 30
0.0
  0
LWPOLYLINE
  5
130
100
AcDbEntity
  8
ink_ext_XXXXXX
 62
7
100
AcDbPolyline
 90
13
 70
0
 10
153.242927
 20
30.000190
 30
0.0
 10
152.760679
 20
30.514751
 30
0.0
 10
152.313004
 20
31.059193
 30
0.0
 10
151.901313
 20
31.631787
 30
0.0
 10
151.527721
 20
32.229569
 30
0.0
 10
151.193288
 20
32.850387
 30
0.0
 10
150.900129
 20
33.491420
 30
0.0
 10
150.648952
 20
34.150409
 30
0.0
 10
150.441165
 20
34.823861
 30
0.0
 10
150.277124
 20
35.510014
 30
0.0
 10
150.157885
 20
36.204634
 30
0.0
 10
150.083802
 20
36.905956
 30
0.0
 10
150.055579
 20
37.610453
 30
0.0
  0
LWPOLYLINE
  5
131
100
AcDbEntity
  8
ink_ext_XXXXXX
 62
7
100
AcDbPolyline
 90
13
 70
0
 10
139.669449
 20
30.000190
 30
0.0
 10
140.151696
 20
30.514751
 30
0.0
 10
140.599371
 20
31.059193
 30
0.0
 10
141.011063
 20
31.631787
 30
0.0
 10
141.384654
 20
32.229569
 30
0.0
 10
141.719088
 20
32.850387
 30
0.0
 10
142.012246
 20
33.491420
 30
0.0
 10
142.263424
 20
34.150409
 30
0.0
 10
142.471563
 20
34.823861
 30
0.0
 10
142.635252
 20
35.510014
 30
0.0
 10
142.754843
 20
36.204634
 30
0.0
 10
142.828574
 20
36.905956
 30
0.0
 10
142.857149
 20
37.610453
 30
0.0
  0
LWPOLYLINE
  5
132
100
AcDbEntity
  8
ink_ext_XXXXXX
 62
7
100
AcDbPolyline
 90
13
 70
0
 10
79.403010
 20
37.610453
 30
0.0
 10
79.431585
 20
36.905956
 30
0.0
 10
79.505668
 20
36.204634
 30
0.0
 10
79.624907
 20
35.510014
 30
0.0
 10
79.788596
 20
34.823861
 30
0.0
 10
79.996735
 20
34.150409
 30
0.0
 10
80.247913
 20
33.491420
 30
0.0
 10
80.541071
 20
32.850387
 30
0.0
 10
80.875504
 20
32.229569
 30
0.0
 10
81.249096
 20
31.631787
 30
0.0
 10
81.660788
 20
31.059193
 30
0.0
 10
82.108463
 20
30.514751
 30
0.0
 10
82.590710
 20
30.000190
 30
0.0
  0
LWPOLYLINE
  5
133
100
AcDbEntity
  8
ink_ext_XXXXXX
 62
7
100
AcDbPolyline
 90
13
 70
0
 10
72.204932
 20
37.610453
 30
0.0
 10
72.176357
 20
36.905956
 30
0.0
 10
72.102274
 20
36.204634
 30
0.0
 10
71.983388
 20
35.510014
 30
0.0
 10
71.818993
 20
34.823861
 30
0.0
 10
71.611207
 20
34.150409
 30
0.0
 10
71.360029
 20
33.491420
 30
0.0
 10
71.066871
 20
32.850387
 30
0.0
 10
70.732438
 20
32.229569
 30
0.0
 10
70.358846
 20
31.631787
 30
0.0
 10
69.947154
 20
31.059193
 30
0.0
 10
69.499479
 20
30.514751
 30
0.0
 10
69.017232
 20
30.000190
 30
0.0
  0
LWPOLYLINE
  5
134
100
AcDbEntity
  8
ink_ext_XXXXXX
 62
7
100
AcDbPolyline
 90
10
 70
0
 10
117.916818
 20
77.613336
 30
0.0
 10
117.434571
 20
77.098986
 30
0.0
 10
116.986896
 20
76.554298
 30
0.0
 10
116.575204
 20
75.982092
 30
0.0
 10
116.201613
 20
75.384134
 30
0.0
 10
115.867179
 20
74.763245
 30
0.0
 10
115.574021
 20
74.122248
 30
0.0
 10
115.322843
 20
73.463259
 30
0.0
 10
115.114704
 20
72.789806
 30
0.0
 10
114.951015
 20
72.104006
 30
0.0
  0
LWPOLYLINE
  5
135
100
AcDbEntity
  8
ink_ext_XXXXXX
 62
7
100
AcDbPolyline
 90
3
 70
0
 10
114.831777
 20
71.409034
 30
0.0
 10
114.757693
 20
70.707711
 30
0.0
 10
114.729471
 20
70.003214
 30
0.0
  0
LWPOLYLINE
  5
136
100
AcDbEntity
  8
ink_ext_XXXXXX
 62
7
100
AcDbPolyline
 90
13
 70
0
 10
104.343340
 20
77.613336
 30
0.0
 10
104.831232
 20
77.102867
 30
0.0
 10
105.283846
 20
76.561353
 30
0.0
 10
105.699418
 20
75.990559
 30
0.0
 10
106.076538
 20
75.393306
 30
0.0
 10
106.412735
 20
74.772770
 30
0.0
 10
106.706952
 20
74.130714
 30
0.0
 10
106.958129
 20
73.471020
 30
0.0
 10
107.164504
 20
72.795803
 30
0.0
 10
107.325724
 20
72.108239
 30
0.0
 10
107.440729
 20
71.411856
 30
0.0
 10
107.509168
 20
70.709123
 30
0.0
 10
107.530688
 20
70.003214
 30
0.0
  0
LWPOLYLINE
  5
137
100
AcDbEntity
  8
ink_ext_XXXXXX
 62
7
100
AcDbPolyline
 90
2
 70
0
 10
99.132813
 20
26.292284
 30
0.0
 10
123.127346
 20
26.292284
 30
0.0
  0
LWPOLYLINE
  5
138
100
AcDbEntity
  8
ink_ext_XXXXXX
 62
7
100
AcDbPolyline
 90
4
 70
0
 10
125.036227
 20
39.882695
 30
0.0
 10
124.750829
 20
38.772503
 30
0.0
 10
124.488010
 20
37.656667
 30
0.0
 10
124.248121
 20
36.535539
 30
0.0
  0
LWPOLYLINE
  5
139
100
AcDbEntity
  8
ink_ext_XXXXXX
 62
7
100
AcDbPolyline
 90
9
 70
0
 10
124.031163
 20
35.409825
 30
0.0
 10
123.837135
 20
34.279525
 30
0.0
 10
123.666038
 20
33.146050
 30
0.0
 10
123.518224
 20
32.009083
 30
0.0
 10
123.393340
 20
30.869434
 30
0.0
 10
123.292093
 20
29.727457
 30
0.0
 10
123.213777
 20
28.583540
 30
0.0
 10
123.159096
 20
27.438388
 30
0.0
 10
123.127346
 20
26.292284
 30
0.0
  0
LWPOLYLINE
  5
13a
100
AcDbEntity
  8
ink_ext_XXXXXX
 62
7
100
AcDbPolyline
 90
4
 70
0
 10
97.223932
 20
39.882695
 30
0.0
 10
97.509329
 20
38.772503
 30
0.0
 10
97.772149
 20
37.656667
 30
0.0
 10
98.012038
 20
36.535539
 30
0.0
  0
LWPOLYLINE
  5
13b
100
AcDbEntity
  8
ink_ext_XXXXXX
 62
7
100
AcDbPolyline
 90
9
 70
0
 10
98.228996
 20
35.409825
 30
0.0
 10
98.423024
 20
34.279525
 30
0.0
 10
98.594121
 20
33.146050
 30
0.0
 10
98.741935
 20
32.009083
 30
0.0
 10
98.866818
 20
30.869434
 30
0.0
 10
98.968065
 20
29.727457
 30
0.0
 10
99.046382
 20
28.583540
 30
0.0
 10
99.101415
 20
27.438388
 30
0.0
 10
99.132813
 20
26.292284
 30
0.0
  0
LWPOLYLINE
  5
13c
100
AcDbEntity
  8
ink_ext_XXXXXX
 62
7
100
AcDbPolyline
 90
5
 70
0
 10
79.403010
 20
37.610453
 30
0.0
 10
79.678882
 20
39.756753
 30
0.0
 10
80.455699
 20
41.776759
 30
0.0
 10
81.689010
 20
43.555111
 30
0.0
 10
83.308613
 20
44.990211
 30
0.0
  0
LWPOLYLINE
  5
13d
100
AcDbEntity
  8
ink_ext_XXXXXX
 62
7
100
AcDbPolyline
 90
2
 70
0
 10
85.222432
 20
46.000567
 30
0.0
 10
87.321107
 20
46.528675
 30
0.0
  0
LWPOLYLINE
  5
13e
100
AcDbEntity
  8
ink_ext_XXXXXX
 62
7
100
AcDbPolyline
 90
6
 70
0
 10
89.485046
 20
46.544198
 30
0.0
 10
91.591129
 20
46.046428
 30
0.0
 10
93.519060
 20
45.063589
 30
0.0
 10
95.159477
 20
43.651773
 30
0.0
 10
96.418188
 20
41.891411
 30
0.0
 10
97.223932
 20
39.882695
 30
0.0
  0
LWPOLYLINE
  5
13f
100
AcDbEntity
  8
ink_ext_XXXXXX
 62
7
100
AcDbPolyline
 90
5
 70
0
 10
142.857149
 20
37.610453
 30
0.0
 10
142.581277
 20
39.756753
 30
0.0
 10
141.804460
 20
41.776759
 30
0.0
 10
140.571149
 20
43.555111
 30
0.0
 10
138.951546
 20
44.990211
 30
0.0
  0
LWPOLYLINE
  5
140
100
AcDbEntity
  8
ink_ext_XXXXXX
 62
7
100
AcDbPolyline
 90
2
 70
0
 10
137.037727
 20
46.000567
 30
0.0
 10
134.939052
 20
46.528675
 30
0.0
  0
LWPOLYLINE
  5
141
100
AcDbEntity
  8
ink_ext_XXXXXX
 62
7
100
AcDbPolyline
 90
6
 70
0
 10
132.775113
 20
46.544198
 30
0.0
 10
130.669029
 20
46.046428
 30
0.0
 10
128.740746
 20
45.063589
 30
0.0
 10
127.100682
 20
43.651773
 30
0.0
 10
125.841971
 20
41.891411
 30
0.0
 10
125.036227
 20
39.882695
 30
0.0
  0
LWPOLYLINE
  5
142
100
AcDbEntity
  8
ink_ext_XXXXXX
 62
7
100
AcDbPolyline
 90
12
 70
0
 10
134.893190
 20
52.578461
 30
0.0
 10
136.997157
 20
52.333634
 30
0.0
 10
139.050677
 20
51.812581
 30
0.0
 10
141.017060
 20
51.024475
 30
0.0
 10
142.862088
 20
49.983428
 30
0.0
 10
144.552952
 20
48.707784
 30
0.0
 10
146.060371
 20
47.219767
 30
0.0
 10
147.357888
 20
45.545131
 30
0.0
 10
148.422571
 20
43.713509
 30
0.0
 10
149.236077
 20
41.757709
 30
0.0
 10
149.783588
 20
39.711245
 30
0.0
 10
150.055579
 20
37.610453
 30
0.0
  0
LWPOLYLINE
  5
143
100
AcDbEntity
  8
ink_ext_XXXXXX
 62
7
100
AcDbPolyline
 90
12
 70
0
 10
87.366968
 20
52.578461
 30
0.0
 10
85.263002
 20
52.333634
 30
0.0
 10
83.209482
 20
51.812581
 30
0.0
 10
81.243099
 20
51.024475
 30
0.0
 10
79.398424
 20
49.983428
 30
0.0
 10
77.707207
 20
48.707784
 30
0.0
 10
76.199788
 20
47.219767
 30
0.0
 10
74.902271
 20
45.545131
 30
0.0
 10
73.837235
 20
43.713509
 30
0.0
 10
73.024082
 20
41.757709
 30
0.0
 10
72.476571
 20
39.711245
 30
0.0
 10
72.204932
 20
37.610453
 30
0.0
  0
LWPOLYLINE
  5
144
100
AcDbEntity
  8
ink_ext_XXXXXX
 62
7
100
AcDbPolyline
 90
6
 70
0
 10
132.775113
 20
52.543184
 30
0.0
 10
131.530513
 20
52.621500
 30
0.0
 10
130.289088
 20
52.740034
 30
0.0
 10
129.052249
 20
52.898431
 30
0.0
 10
127.821054
 20
53.096339
 30
0.0
 10
127.627732
 20
53.134086
 30
0.0
  0
LWPOLYLINE
  5
145
100
AcDbEntity
  8
ink_ext_XXXXXX
 62
7
100
AcDbPolyline
 90
5
 70
0
 10
94.495902
 20
52.797889
 30
0.0
 10
93.249185
 20
52.645489
 30
0.0
 10
91.996471
 20
52.551650
 30
0.0
 10
90.740935
 20
52.517784
 30
0.0
 10
89.485046
 20
52.543184
 30
0.0
  0
LWPOLYLINE
  5
146
100
AcDbEntity
  8
ink_ext_XXXXXX
 62
7
100
AcDbPolyline
 90
2
 70
0
 10
95.050821
 20
52.892434
 30
0.0
 10
94.495902
 20
52.797889
 30
0.0
  0
LWPOLYLINE
  5
147
100
AcDbEntity
  8
ink_ext_XXXXXX
 62
7
100
AcDbPolyline
 90
13
 70
0
 10
127.627732
 20
53.134086
 30
0.0
 10
125.822215
 20
53.729928
 30
0.0
 10
124.092193
 20
54.518739
 30
0.0
 10
122.458479
 20
55.490995
 30
0.0
 10
120.939771
 20
56.635053
 30
0.0
 10
119.554765
 20
57.937156
 30
0.0
 10
118.319338
 20
59.382486
 30
0.0
 10
117.248304
 20
60.953406
 30
0.0
 10
116.354718
 20
62.631570
 30
0.0
 10
115.648810
 20
64.396870
 30
0.0
 10
115.138693
 20
66.228492
 30
0.0
 10
114.831071
 20
68.104564
 30
0.0
 10
114.729471
 20
70.003214
 30
0.0
  0
LWPOLYLINE
  5
148
100
AcDbEntity
  8
ink_ext_XXXXXX
 62
7
100
AcDbPolyline
 90
13
 70
0
 10
107.530688
 20
70.003214
 30
0.0
 10
107.474949
 20
68.107034
 30
0.0
 10
107.212482
 20
66.228492
 30
0.0
 10
106.747168
 20
64.389814
 30
0.0
 10
106.083946
 20
62.612520
 30
0.0
 10
105.231282
 20
60.918128
 30
0.0
 10
104.198702
 20
59.326748
 30
0.0
 10
102.998904
 20
57.857781
 30
0.0
 10
101.646354
 20
56.527809
 30
0.0
 10
100.156574
 20
55.353764
 30
0.0
 10
98.547907
 20
54.348700
 30
0.0
 10
96.839052
 20
53.524964
 30
0.0
 10
95.050821
 20
52.892434
 30
0.0
  0
LWPOLYLINE
  5
149
100
AcDbEntity
  8
ink_ext_XXXXXX
 62
7
100
AcDbPolyline
 90
3
 70
0
 10
137.185540
 20
25.697677
 30
0.0
 10
138.144390
 20
28.012499
 30
0.0
 10
139.669449
 20
30.000190
 30
0.0
  0
LWPOLYLINE
  5
14a
100
AcDbEntity
  8
ink_ext_XXXXXX
 62
7
100
AcDbPolyline
 90
3
 70
0
 10
82.590710
 20
30.000190
 30
0.0
 10
84.116121
 20
28.012499
 30
0.0
 10
85.074618
 20
25.697677
 30
0.0
  0
LWPOLYLINE
  5
14b
100
AcDbEntity
  8
ink_ext_XXXXXX
 62
7
100
AcDbPolyline
 90
2
 70
0
 10
114.951015
 20
72.104006
 30
0.0
 10
114.831777
 20
71.409034
 30
0.0
  0
LWPOLYLINE
  5
14c
100
AcDbEntity
  8
ink_ext_XXXXXX
 62
7
100
AcDbPolyline
 90
2
 70
0
 10
124.248121
 20
36.535539
 30
0.0
 10
124.031163
 20
35.409825
 30
0.0
  0
LWPOLYLINE
  5
14d
100
AcDbEntity
  8
ink_ext_XXXXXX
 62
7
100
AcDbPolyline
 90
2
 70
0
 10
98.012038
 20
36.535539
 30
0.0
 10
98.228996
 20
35.409825
 30
0.0
  0
LWPOLYLINE
  5
14e
100
AcDbEntity
  8
ink_ext_XXXXXX
 62
7
100
AcDbPolyline
 90
2
 70
0
 10
83.308613
 20
44.990211
 30
0.0
 10
85.222432
 20
46.000567
 30
0.0
  0
LWPOLYLINE
  5
14f
100
AcDbEntity
  8
ink_ext_XXXXXX
 62
7
100
AcDbPolyline
 90
2
 70
0
 10
87.321107
 20
46.528675
 30
0.0
 10
89.485046
 20
46.544198
 30
0.0
  0
LWPOLYLINE
  5
150
100
AcDbEntity
  8
ink_ext_XXXXXX
 62
7
100
AcDbPolyline
 90
2
 70
0
 10
138.951546
 20
44.990211
 30
0.0
 10
137.037727
 20
46.000567
 30
0.0
  0
LWPOLYLINE
  5
151
100
AcDbEntity
  8
ink_ext_XXXXXX
 62
7
100
AcDbPolyline
 90
2
 70
0
 10
134.939052
 20
46.528675
 30
0.0
 10
132.775113
 20
46.544198
 30
0.0
  0
LWPOLYLINE
  5
152
100
AcDbEntity
  8
ink_ext_XXXXXX
 62
7
100
AcDbPolyline
 90
2
 70
0
 10
132.775113
 20
52.543184
 30
0.0
 10
134.893190
 20
52.578461
 30
0.0
  0
SPLINE
  5
153
100
AcDbEntity
  8
ink_ext_XXXXXX
 62
7
100
AcDbSpline
 70
8
 71
3
 72
8
 73
4
 74
0
 40
0
 40
0
 40
0
 40
0
 40
1
 40
1
 40
1
 40
1
 10
28.952260
 20
25.915920
 30
0.0
 10
-3.177333
 20
-2.982882
 30
0.0
 10
12.887464
 20
11.466518
 30
0.0
 10
28.952260
 20
25.915920
 30
0.0
  0
LWPOLYLINE
  5
154
100
AcDbEntity
  8
ink_ext_XXXXXX
 62
7
100
AcDbPolyline
 90
2
 70
0
 10
89.485046
 20
52.543184
 30
0.0
 10
87.366968
 20
52.578461
 30
0.0
  0
SPLINE
  5
155
100
AcDbEntity
  8
ink_ext_XXXXXX
 62
7
100
AcDbSpline
 70
8
 71
3
 72
8
 73
4
 74
0
 40
0
 40
0
 40
0
 40
0
 40
1
 40
1
 40
1
 40
1
 10
28.952328
 20
9.231189
 30
0.0
 10
-3.177381
 20
38.129979
 30
0.0
 10
12.887472
 20
23.680591
 30
0.0
 10
28.952328
 20
9.231189
 30
0.0
  0
LWPOLYLINE
  5
156
100
AcDbEntity
  8
ink_ext_XXXXXX
 62
7
100
AcDbPolyline
 90
2
 70
0
 10
28.952260
 20
25.915920
 30
0.0
 10
28.952260
 20
25.915920
 30
0.0
  0
LWPOLYLINE
  5
157
100
AcDbEntity
  8
ink_ext_XXXXXX
 62
7
100
AcDbPolyline
 90
2
 70
0
 10
28.952328
 20
9.231189
 30
0.0
 10
28.952328
 20
9.231189
 30
0.0
  0
ENDSEC
  0
SECTION
  2
OBJECTS
  0
DICTIONARY
  5
C
330
0
100
AcDbDictionary
  3
ACAD_GROUP
350
D
  3
ACAD_MLINESTYLE
350
17
  0
DICTIONARY
  5
D
330
C
100
AcDbDictionary
  0
DICTIONARY
  5
1A
330
C
100
AcDbDictionary
  0
DICTIONARY
  5
17
330
C
100
AcDbDictionary
  3
STANDARD
350
18
  0
DICTIONARY
  5
19
330
C
100
AcDbDictionary
  0
ENDSEC
  0
EOF
