<?xml version="1.0" encoding="UTF-8" standalone="no"?>
<!-- Created with Inkscape (http://www.inkscape.org/) -->

<svg
   xmlns:dc="http://purl.org/dc/elements/1.1/"
   xmlns:cc="http://creativecommons.org/ns#"
   xmlns:rdf="http://www.w3.org/1999/02/22-rdf-syntax-ns#"
   xmlns:svg="http://www.w3.org/2000/svg"
   xmlns="http://www.w3.org/2000/svg"
   xmlns:sodipodi="http://sodipodi.sourceforge.net/DTD/sodipodi-0.dtd"
   xmlns:inkscape="http://www.inkscape.org/namespaces/inkscape"
   id="svg2"
   version="1.1"
   inkscape:version="0.48.4 r9939"
   width="743.75"
   height="1052.5"
   xml:space="preserve"
   sodipodi:docname="laser.dxf"><metadata
     id="metadata8"><rdf:RDF><cc:Work
         rdf:about=""><dc:format>image/svg+xml</dc:format><dc:type
           rdf:resource="http://purl.org/dc/dcmitype/StillImage" /><dc:title></dc:title></cc:Work></rdf:RDF></metadata><defs
     id="defs6"><clipPath
       clipPathUnits="userSpaceOnUse"
       id="clipPath18"><path
         d="m 180,180 5580,0 0,7920 -5580,0 0,-7920 z"
         id="path20" /></clipPath></defs><sodipodi:namedview
     pagecolor="#ffffff"
     bordercolor="#666666"
     borderopacity="1"
     objecttolerance="10"
     gridtolerance="10"
     guidetolerance="10"
     inkscape:pageopacity="0"
     inkscape:pageshadow="2"
     inkscape:window-width="1280"
     inkscape:window-height="758"
     id="namedview4"
     showgrid="false"
     inkscape:zoom="3.5876484"
     inkscape:cx="155.13075"
     inkscape:cy="83.422284"
     inkscape:window-x="-2"
     inkscape:window-y="-3"
     inkscape:window-maximized="1"
     inkscape:current-layer="g16" /><g
     id="g10"
     inkscape:groupmode="layer"
     inkscape:label="ink_ext_XXXXXX"
     transform="matrix(1.25,0,0,-1.25,0,1052.5)"><g
       id="g12"
       transform="scale(0.1,0.1)"><g
         id="g14"><g
           id="g16"
           clip-path="url(#clipPath18)"><path
             d="m 491.199,363.199 845.431,0"
             style="fill:none;stroke:none"
             id="path22"
             inkscape:connector-curvature="0" /><path
             d="m 1336.63,363.199 0,422.645"
             style="fill:none;stroke:none"
             id="path24"
             inkscape:connector-curvature="0" /><path
             d="m 1336.63,785.844 -845.431,0"
             style="fill:none;stroke:none"
             id="path26"
             inkscape:connector-curvature="0" /><path
             d="m 491.199,785.844 0,-422.645"
             style="fill:none;stroke:none"
             id="path28"
             inkscape:connector-curvature="0" /><path
             d="m 492.199,437.199 c 0,9.938 -8.062,18 -18,18 -9.937,0 -18,-8.062 -18,-18 0,-9.937 8.063,-18 18,-18 9.938,0 18,8.063 18,18"
             style="fill:none;stroke:#000000;stroke-width:8.64000034;stroke-linecap:round;stroke-linejoin:round;stroke-miterlimit:10;stroke-opacity:1;stroke-dasharray:none"
             id="path30"
             inkscape:connector-curvature="0" /><path
             d="m 1365.199,527.199 c 0,9.938 -8.062,18 -18,18 -9.937,0 -18,-8.062 -18,-18 0,-9.937 8.063,-18 18,-18 9.938,0 18,8.063 18,18"
             style="fill:none;stroke:#000000;stroke-width:8.64000034;stroke-linecap:round;stroke-linejoin:round;stroke-miterlimit:10;stroke-opacity:1;stroke-dasharray:none"
             id="path32"
             inkscape:connector-curvature="0" /><path
             d="m 1122.332,566.586 c 0,-3.91 3.18,-7.086 7.09,-7.086"
             style="fill:none;stroke:#000000;stroke-width:4.32000017;stroke-linecap:butt;stroke-linejoin:miter;stroke-miterlimit:10;stroke-opacity:1;stroke-dasharray:none"
             id="path34"
             inkscape:connector-curvature="0" /><path
             d="m 1129.422,706.902 c -3.91,0 -7.09,-3.179 -7.09,-7.089"
             style="fill:none;stroke:#000000;stroke-width:4.32000017;stroke-linecap:round;stroke-linejoin:miter;stroke-miterlimit:10;stroke-opacity:1;stroke-dasharray:none"
             id="path36"
             inkscape:connector-curvature="0" /><path
             d="m 1264.066,699.813 c 0,3.91 -3.175,7.089 -7.086,7.089"
             style="fill:none;stroke:#000000;stroke-width:4.32000017;stroke-linecap:butt;stroke-linejoin:miter;stroke-miterlimit:10;stroke-opacity:1;stroke-dasharray:none"
             id="path38"
             inkscape:connector-curvature="0" /><path
             d="m 1256.98,559.5 c 3.911,0 7.086,3.176 7.086,7.086"
             style="fill:none;stroke:#000000;stroke-width:4.32000017;stroke-linecap:butt;stroke-linejoin:miter;stroke-miterlimit:10;stroke-opacity:1;stroke-dasharray:none"
             id="path40"
             inkscape:connector-curvature="0" /><path
             d="m 1264.066,700.098 0,-133.227"
             style="fill:none;stroke:#000000;stroke-width:4.32000017;stroke-linecap:round;stroke-linejoin:round;stroke-miterlimit:10;stroke-opacity:1;stroke-dasharray:none"
             id="path42"
             inkscape:connector-curvature="0" /><path
             d="m 1122.332,566.871 0,133.227"
             style="fill:none;stroke:#000000;stroke-width:4.32000017;stroke-linecap:round;stroke-linejoin:round;stroke-miterlimit:10;stroke-opacity:1;stroke-dasharray:none"
             id="path44"
             inkscape:connector-curvature="0" /><path
             d="m 1122.332,570.555 0,-3.684"
             style="fill:none;stroke:#000000;stroke-width:4.32000017;stroke-linecap:round;stroke-linejoin:round;stroke-miterlimit:10;stroke-opacity:1;stroke-dasharray:none"
             id="path46"
             inkscape:connector-curvature="0" /><path
             d="m 1122.332,588.129 0,18.141"
             style="fill:none;stroke:#000000;stroke-width:4.32000017;stroke-linecap:round;stroke-linejoin:round;stroke-miterlimit:10;stroke-opacity:1;stroke-dasharray:none"
             id="path48"
             inkscape:connector-curvature="0" /><path
             d="m 1122.332,624.129 0,18.141"
             style="fill:none;stroke:#000000;stroke-width:4.32000017;stroke-linecap:round;stroke-linejoin:round;stroke-miterlimit:10;stroke-opacity:1;stroke-dasharray:none"
             id="path50"
             inkscape:connector-curvature="0" /><path
             d="m 1122.332,660.129 0,18.141"
             style="fill:none;stroke:#000000;stroke-width:4.32000017;stroke-linecap:round;stroke-linejoin:round;stroke-miterlimit:10;stroke-opacity:1;stroke-dasharray:none"
             id="path52"
             inkscape:connector-curvature="0" /><path
             d="m 1122.332,695.844 0,4.254"
             style="fill:none;stroke:#000000;stroke-width:4.32000017;stroke-linecap:round;stroke-linejoin:round;stroke-miterlimit:10;stroke-opacity:1;stroke-dasharray:none"
             id="path54"
             inkscape:connector-curvature="0" /><path
             d="m 1264.066,695.563 0,3.683"
             style="fill:none;stroke:#000000;stroke-width:4.32000017;stroke-linecap:round;stroke-linejoin:round;stroke-miterlimit:10;stroke-opacity:1;stroke-dasharray:none"
             id="path56"
             inkscape:connector-curvature="0" /><path
             d="m 1264.066,678.27 0,-18.426"
             style="fill:none;stroke:#000000;stroke-width:4.32000017;stroke-linecap:round;stroke-linejoin:round;stroke-miterlimit:10;stroke-opacity:1;stroke-dasharray:none"
             id="path58"
             inkscape:connector-curvature="0" /><path
             d="m 1264.066,642.27 0,-18.426"
             style="fill:none;stroke:#000000;stroke-width:4.32000017;stroke-linecap:round;stroke-linejoin:round;stroke-miterlimit:10;stroke-opacity:1;stroke-dasharray:none"
             id="path60"
             inkscape:connector-curvature="0" /><path
             d="m 1264.066,606.27 0,-18.141"
             style="fill:none;stroke:#000000;stroke-width:4.32000017;stroke-linecap:round;stroke-linejoin:round;stroke-miterlimit:10;stroke-opacity:1;stroke-dasharray:none"
             id="path62"
             inkscape:connector-curvature="0" /><path
             d="m 1264.066,570.555 0,-3.684"
             style="fill:none;stroke:#000000;stroke-width:4.32000017;stroke-linecap:round;stroke-linejoin:round;stroke-miterlimit:10;stroke-opacity:1;stroke-dasharray:none"
             id="path64"
             inkscape:connector-curvature="0" /><path
             d="m 1129.422,559.5 127.273,0"
             style="fill:none;stroke:#000000;stroke-width:4.32000017;stroke-linecap:round;stroke-linejoin:round;stroke-miterlimit:10;stroke-opacity:1;stroke-dasharray:none"
             id="path66"
             inkscape:connector-curvature="0" /><path
             d="m 1256.98,706.902 -127.558,0"
             style="fill:none;stroke:#000000;stroke-width:4.32000017;stroke-linecap:round;stroke-linejoin:round;stroke-miterlimit:10;stroke-opacity:1;stroke-dasharray:none"
             id="path68"
             inkscape:connector-curvature="0" /><path
             d="m 1251.422,572.113 62.3633,0 0,14.1719 -62.3633,0 0,-14.1719 z"
             style="fill:#000000;fill-opacity:1;fill-rule:nonzero;stroke:none"
             id="path72"
             inkscape:connector-curvature="0" /><path
             d="m 1251.422,607.828 62.3633,0 0,14.1758 -62.3633,0 0,-14.1758 z"
             style="fill:#000000;fill-opacity:1;fill-rule:nonzero;stroke:none"
             id="path74"
             inkscape:connector-curvature="0" /><path
             d="m 1251.422,643.828 62.3633,0 0,14.1758 -62.3633,0 0,-14.1758 z"
             style="fill:#000000;fill-opacity:1;fill-rule:nonzero;stroke:none"
             id="path76"
             inkscape:connector-curvature="0" /><path
             d="m 1251.422,679.828 62.3633,0 0,14.1758 -62.3633,0 0,-14.1758 z"
             style="fill:#000000;fill-opacity:1;fill-rule:nonzero;stroke:none"
             id="path78"
             inkscape:connector-curvature="0" /><path
             d="m 1072.613,572.113 62.3633,0 0,14.1719 -62.3633,0 0,-14.1719 z"
             style="fill:#000000;fill-opacity:1;fill-rule:nonzero;stroke:none"
             id="path80"
             inkscape:connector-curvature="0" /><path
             d="m 1072.613,608.113 62.3633,0 0,14.1719 -62.3633,0 0,-14.1719 z"
             style="fill:#000000;fill-opacity:1;fill-rule:nonzero;stroke:none"
             id="path82"
             inkscape:connector-curvature="0" /><path
             d="m 1072.613,644.113 62.3633,0 0,14.1719 -62.3633,0 0,-14.1719 z"
             style="fill:#000000;fill-opacity:1;fill-rule:nonzero;stroke:none"
             id="path84"
             inkscape:connector-curvature="0" /><path
             d="m 1072.613,680.113 62.3633,0 0,14.1719 -62.3633,0 0,-14.1719 z"
             style="fill:#000000;fill-opacity:1;fill-rule:nonzero;stroke:none"
             id="path86"
             inkscape:connector-curvature="0" /><path
             d="m 1096.82,574.238 25.5117,0 0,9.92188 -25.5117,0 0,-9.92188 z"
             style="fill:#000000;fill-opacity:1;fill-rule:nonzero;stroke:none"
             id="path88"
             inkscape:connector-curvature="0" /><path
             d="m 1096.82,610.238 25.5117,0 0,9.92188 -25.5117,0 0,-9.92188 z"
             style="fill:#000000;fill-opacity:1;fill-rule:nonzero;stroke:none"
             id="path90"
             inkscape:connector-curvature="0" /><path
             d="m 1096.82,646.238 25.5117,0 0,9.92188 -25.5117,0 0,-9.92188 z"
             style="fill:#000000;fill-opacity:1;fill-rule:nonzero;stroke:none"
             id="path92"
             inkscape:connector-curvature="0" /><path
             d="m 1096.82,682.238 25.5117,0 0,9.92188 -25.5117,0 0,-9.92188 z"
             style="fill:#000000;fill-opacity:1;fill-rule:nonzero;stroke:none"
             id="path94"
             inkscape:connector-curvature="0" /><path
             d="m 1264.066,681.957 25.5117,0 0,9.92188 -25.5117,0 0,-9.92188 z"
             style="fill:#000000;fill-opacity:1;fill-rule:nonzero;stroke:none"
             id="path96"
             inkscape:connector-curvature="0" /><path
             d="m 1264.066,645.957 25.5117,0 0,9.92188 -25.5117,0 0,-9.92188 z"
             style="fill:#000000;fill-opacity:1;fill-rule:nonzero;stroke:none"
             id="path98"
             inkscape:connector-curvature="0" /><path
             d="m 1264.066,609.957 25.5117,0 0,9.92188 -25.5117,0 0,-9.92188 z"
             style="fill:#000000;fill-opacity:1;fill-rule:nonzero;stroke:none"
             id="path100"
             inkscape:connector-curvature="0" /><path
             d="m 1264.066,574.238 25.5117,0 0,9.92188 -25.5117,0 0,-9.92188 z"
             style="fill:#000000;fill-opacity:1;fill-rule:nonzero;stroke:none"
             id="path102"
             inkscape:connector-curvature="0" /><path
             d="m 1164.398,633.199 57.602,0"
             style="fill:none;stroke:none"
             id="path104"
             inkscape:connector-curvature="0" /><path
             d="m 1193.199,604.398 0,57.602"
             style="fill:none;stroke:none"
             id="path106"
             inkscape:connector-curvature="0" /><path
             d="m 694.953,389.336 -83.508,0"
             style="fill:none;stroke:#000000;stroke-width:1.44000006;stroke-linecap:round;stroke-linejoin:round;stroke-miterlimit:10;stroke-opacity:1;stroke-dasharray:none"
             id="path112"
             inkscape:connector-curvature="0" /><path
             d="m 611.445,389.336 0,55.73"
             style="fill:none;stroke:#000000;stroke-width:1.44000006;stroke-linecap:round;stroke-linejoin:round;stroke-miterlimit:10;stroke-opacity:1;stroke-dasharray:none"
             id="path114"
             inkscape:connector-curvature="0" /><path
             d="m 611.445,445.066 83.508,0"
             style="fill:none;stroke:#000000;stroke-width:1.44000006;stroke-linecap:round;stroke-linejoin:round;stroke-miterlimit:10;stroke-opacity:1;stroke-dasharray:none"
             id="path116"
             inkscape:connector-curvature="0" /><path
             d="m 694.953,445.066 0,-55.73"
             style="fill:none;stroke:#000000;stroke-width:1.44000006;stroke-linecap:round;stroke-linejoin:round;stroke-miterlimit:10;stroke-opacity:1;stroke-dasharray:none"
             id="path118"
             inkscape:connector-curvature="0" /><path
             d="m 634,417.199 38.398,0"
             style="fill:none;stroke:none"
             id="path128"
             inkscape:connector-curvature="0" /><path
             d="m 653.199,398 0,38.398"
             style="fill:none;stroke:none"
             id="path130"
             inkscape:connector-curvature="0" /><path
             d="m 581.199,489.199 0,36"
             style="fill:none;stroke:#000000;stroke-width:4.32000017;stroke-linecap:round;stroke-linejoin:round;stroke-miterlimit:10;stroke-opacity:1;stroke-dasharray:none"
             id="path132"
             inkscape:connector-curvature="0" /><path
             d="m 581.199,525.199 18,18"
             style="fill:none;stroke:#000000;stroke-width:4.32000017;stroke-linecap:round;stroke-linejoin:round;stroke-miterlimit:10;stroke-opacity:1;stroke-dasharray:none"
             id="path134"
             inkscape:connector-curvature="0" /><path
             d="m 599.199,543.199 36,0"
             style="fill:none;stroke:#000000;stroke-width:4.32000017;stroke-linecap:round;stroke-linejoin:round;stroke-miterlimit:10;stroke-opacity:1;stroke-dasharray:none"
             id="path136"
             inkscape:connector-curvature="0" /><path
             d="m 635.199,543.199 18,-18"
             style="fill:none;stroke:#000000;stroke-width:4.32000017;stroke-linecap:round;stroke-linejoin:round;stroke-miterlimit:10;stroke-opacity:1;stroke-dasharray:none"
             id="path138"
             inkscape:connector-curvature="0" /><path
             d="m 599.199,471.199 36,0"
             style="fill:none;stroke:#000000;stroke-width:4.32000017;stroke-linecap:round;stroke-linejoin:round;stroke-miterlimit:10;stroke-opacity:1;stroke-dasharray:none"
             id="path140"
             inkscape:connector-curvature="0" /><path
             d="m 581.199,489.199 18,-18"
             style="fill:none;stroke:#000000;stroke-width:4.32000017;stroke-linecap:round;stroke-linejoin:round;stroke-miterlimit:10;stroke-opacity:1;stroke-dasharray:none"
             id="path142"
             inkscape:connector-curvature="0" /><path
             d="m 635.199,471.199 18,18"
             style="fill:none;stroke:#000000;stroke-width:4.32000017;stroke-linecap:round;stroke-linejoin:round;stroke-miterlimit:10;stroke-opacity:1;stroke-dasharray:none"
             id="path144"
             inkscape:connector-curvature="0" /><path
             d="m 653.199,525.199 0,-36"
             style="fill:none;stroke:#000000;stroke-width:4.32000017;stroke-linecap:round;stroke-linejoin:round;stroke-miterlimit:10;stroke-opacity:1;stroke-dasharray:none"
             id="path146"
             inkscape:connector-curvature="0" /><path
             d="m 653.199,525.199 18,18"
             style="fill:none;stroke:#000000;stroke-width:4.32000017;stroke-linecap:round;stroke-linejoin:round;stroke-miterlimit:10;stroke-opacity:1;stroke-dasharray:none"
             id="path148"
             inkscape:connector-curvature="0" /><path
             d="m 671.199,543.199 36,0"
             style="fill:none;stroke:#000000;stroke-width:4.32000017;stroke-linecap:round;stroke-linejoin:round;stroke-miterlimit:10;stroke-opacity:1;stroke-dasharray:none"
             id="path150"
             inkscape:connector-curvature="0" /><path
             d="m 707.199,543.199 18,-18"
             style="fill:none;stroke:#000000;stroke-width:4.32000017;stroke-linecap:round;stroke-linejoin:round;stroke-miterlimit:10;stroke-opacity:1;stroke-dasharray:none"
             id="path152"
             inkscape:connector-curvature="0" /><path
             d="m 725.199,525.199 0,-36"
             style="fill:none;stroke:#000000;stroke-width:4.32000017;stroke-linecap:round;stroke-linejoin:round;stroke-miterlimit:10;stroke-opacity:1;stroke-dasharray:none"
             id="path154"
             inkscape:connector-curvature="0" /><path
             d="m 653.199,489.199 18,-18"
             style="fill:none;stroke:#000000;stroke-width:4.32000017;stroke-linecap:round;stroke-linejoin:round;stroke-miterlimit:10;stroke-opacity:1;stroke-dasharray:none"
             id="path156"
             inkscape:connector-curvature="0" /><path
             d="m 671.199,471.199 36,0"
             style="fill:none;stroke:#000000;stroke-width:4.32000017;stroke-linecap:round;stroke-linejoin:round;stroke-miterlimit:10;stroke-opacity:1;stroke-dasharray:none"
             id="path158"
             inkscape:connector-curvature="0" /><path
             d="m 707.199,471.199 18,18"
             style="fill:none;stroke:#000000;stroke-width:4.32000017;stroke-linecap:round;stroke-linejoin:round;stroke-miterlimit:10;stroke-opacity:1;stroke-dasharray:none"
             id="path160"
             inkscape:connector-curvature="0" /><path
             d="m 671.199,615.199 36,0"
             style="fill:none;stroke:#000000;stroke-width:4.32000017;stroke-linecap:round;stroke-linejoin:round;stroke-miterlimit:10;stroke-opacity:1;stroke-dasharray:none"
             id="path162"
             inkscape:connector-curvature="0" /><path
             d="m 599.199,615.199 36,0"
             style="fill:none;stroke:#000000;stroke-width:4.32000017;stroke-linecap:round;stroke-linejoin:round;stroke-miterlimit:10;stroke-opacity:1;stroke-dasharray:none"
             id="path164"
             inkscape:connector-curvature="0" /><path
             d="m 635.199,615.199 18,-18"
             style="fill:none;stroke:#000000;stroke-width:4.32000017;stroke-linecap:round;stroke-linejoin:round;stroke-miterlimit:10;stroke-opacity:1;stroke-dasharray:none"
             id="path166"
             inkscape:connector-curvature="0" /><path
             d="m 653.199,597.199 18,18"
             style="fill:none;stroke:#000000;stroke-width:4.32000017;stroke-linecap:round;stroke-linejoin:round;stroke-miterlimit:10;stroke-opacity:1;stroke-dasharray:none"
             id="path168"
             inkscape:connector-curvature="0" /><path
             d="m 707.199,615.199 18,-18"
             style="fill:none;stroke:#000000;stroke-width:4.32000017;stroke-linecap:round;stroke-linejoin:round;stroke-miterlimit:10;stroke-opacity:1;stroke-dasharray:none"
             id="path170"
             inkscape:connector-curvature="0" /><path
             d="m 581.199,597.199 18,18"
             style="fill:none;stroke:#000000;stroke-width:4.32000017;stroke-linecap:round;stroke-linejoin:round;stroke-miterlimit:10;stroke-opacity:1;stroke-dasharray:none"
             id="path172"
             inkscape:connector-curvature="0" /><path
             d="m 581.199,561.199 0,36"
             style="fill:none;stroke:#000000;stroke-width:4.32000017;stroke-linecap:round;stroke-linejoin:round;stroke-miterlimit:10;stroke-opacity:1;stroke-dasharray:none"
             id="path174"
             inkscape:connector-curvature="0" /><path
             d="m 653.199,561.199 0,36"
             style="fill:none;stroke:#000000;stroke-width:4.32000017;stroke-linecap:round;stroke-linejoin:round;stroke-miterlimit:10;stroke-opacity:1;stroke-dasharray:none"
             id="path176"
             inkscape:connector-curvature="0" /><path
             d="m 725.199,561.199 0,36"
             style="fill:none;stroke:#000000;stroke-width:4.32000017;stroke-linecap:round;stroke-linejoin:round;stroke-miterlimit:10;stroke-opacity:1;stroke-dasharray:none"
             id="path178"
             inkscape:connector-curvature="0" /><path
             d="m 671.199,543.199 -18,18"
             style="fill:none;stroke:#000000;stroke-width:4.32000017;stroke-linecap:round;stroke-linejoin:round;stroke-miterlimit:10;stroke-opacity:1;stroke-dasharray:none"
             id="path180"
             inkscape:connector-curvature="0" /><path
             d="m 599.199,543.199 -18,18"
             style="fill:none;stroke:#000000;stroke-width:4.32000017;stroke-linecap:round;stroke-linejoin:round;stroke-miterlimit:10;stroke-opacity:1;stroke-dasharray:none"
             id="path182"
             inkscape:connector-curvature="0" /><path
             d="m 653.199,561.199 -18,-18"
             style="fill:none;stroke:#000000;stroke-width:4.32000017;stroke-linecap:round;stroke-linejoin:round;stroke-miterlimit:10;stroke-opacity:1;stroke-dasharray:none"
             id="path184"
             inkscape:connector-curvature="0" /><path
             d="m 725.199,561.199 -18,-18"
             style="fill:none;stroke:#000000;stroke-width:4.32000017;stroke-linecap:round;stroke-linejoin:round;stroke-miterlimit:10;stroke-opacity:1;stroke-dasharray:none"
             id="path186"
             inkscape:connector-curvature="0" /><path
             d="m 599.199,687.199 36,0"
             style="fill:none;stroke:#000000;stroke-width:4.32000017;stroke-linecap:round;stroke-linejoin:round;stroke-miterlimit:10;stroke-opacity:1;stroke-dasharray:none"
             id="path188"
             inkscape:connector-curvature="0" /><path
             d="m 671.199,687.199 36,0"
             style="fill:none;stroke:#000000;stroke-width:4.32000017;stroke-linecap:round;stroke-linejoin:round;stroke-miterlimit:10;stroke-opacity:1;stroke-dasharray:none"
             id="path190"
             inkscape:connector-curvature="0" /><path
             d="m 635.199,687.199 18,-18"
             style="fill:none;stroke:#000000;stroke-width:4.32000017;stroke-linecap:round;stroke-linejoin:round;stroke-miterlimit:10;stroke-opacity:1;stroke-dasharray:none"
             id="path192"
             inkscape:connector-curvature="0" /><path
             d="m 653.199,669.199 18,18"
             style="fill:none;stroke:#000000;stroke-width:4.32000017;stroke-linecap:round;stroke-linejoin:round;stroke-miterlimit:10;stroke-opacity:1;stroke-dasharray:none"
             id="path194"
             inkscape:connector-curvature="0" /><path
             d="m 707.199,687.199 18,-18"
             style="fill:none;stroke:#000000;stroke-width:4.32000017;stroke-linecap:round;stroke-linejoin:round;stroke-miterlimit:10;stroke-opacity:1;stroke-dasharray:none"
             id="path196"
             inkscape:connector-curvature="0" /><path
             d="m 581.199,669.199 18,18"
             style="fill:none;stroke:#000000;stroke-width:4.32000017;stroke-linecap:round;stroke-linejoin:round;stroke-miterlimit:10;stroke-opacity:1;stroke-dasharray:none"
             id="path198"
             inkscape:connector-curvature="0" /><path
             d="m 671.199,615.199 -18,18"
             style="fill:none;stroke:#000000;stroke-width:4.32000017;stroke-linecap:round;stroke-linejoin:round;stroke-miterlimit:10;stroke-opacity:1;stroke-dasharray:none"
             id="path200"
             inkscape:connector-curvature="0" /><path
             d="m 653.199,633.199 -18,-18"
             style="fill:none;stroke:#000000;stroke-width:4.32000017;stroke-linecap:round;stroke-linejoin:round;stroke-miterlimit:10;stroke-opacity:1;stroke-dasharray:none"
             id="path202"
             inkscape:connector-curvature="0" /><path
             d="m 599.199,615.199 -18,18"
             style="fill:none;stroke:#000000;stroke-width:4.32000017;stroke-linecap:round;stroke-linejoin:round;stroke-miterlimit:10;stroke-opacity:1;stroke-dasharray:none"
             id="path204"
             inkscape:connector-curvature="0" /><path
             d="m 725.199,633.199 -18,-18"
             style="fill:none;stroke:#000000;stroke-width:4.32000017;stroke-linecap:round;stroke-linejoin:round;stroke-miterlimit:10;stroke-opacity:1;stroke-dasharray:none"
             id="path206"
             inkscape:connector-curvature="0" /><path
             d="m 653.199,633.199 0,36"
             style="fill:none;stroke:#000000;stroke-width:4.32000017;stroke-linecap:round;stroke-linejoin:round;stroke-miterlimit:10;stroke-opacity:1;stroke-dasharray:none"
             id="path208"
             inkscape:connector-curvature="0" /><path
             d="m 581.199,633.199 0,36"
             style="fill:none;stroke:#000000;stroke-width:4.32000017;stroke-linecap:round;stroke-linejoin:round;stroke-miterlimit:10;stroke-opacity:1;stroke-dasharray:none"
             id="path210"
             inkscape:connector-curvature="0" /><path
             d="m 725.199,633.199 0,36"
             style="fill:none;stroke:#000000;stroke-width:4.32000017;stroke-linecap:round;stroke-linejoin:round;stroke-miterlimit:10;stroke-opacity:1;stroke-dasharray:none"
             id="path212"
             inkscape:connector-curvature="0" /><path
             d="m 678.398,492.801 93.6016,0 0,28.8008 -93.6016,0 0,-28.8008 z"
             style="fill:#000000;fill-opacity:1;fill-rule:nonzero;stroke:none"
             id="path214"
             inkscape:connector-curvature="0" /><path
             d="m 534.398,492.801 93.6016,0 0,28.8008 -93.6016,0 0,-28.8008 z"
             style="fill:#000000;fill-opacity:1;fill-rule:nonzero;stroke:none"
             id="path216"
             inkscape:connector-curvature="0" /><path
             d="m 678.398,564.801 93.6016,0 0,28.8008 -93.6016,0 0,-28.8008 z"
             style="fill:#000000;fill-opacity:1;fill-rule:nonzero;stroke:none"
             id="path218"
             inkscape:connector-curvature="0" /><path
             d="m 534.398,564.801 93.6016,0 0,28.8008 -93.6016,0 0,-28.8008 z"
             style="fill:#000000;fill-opacity:1;fill-rule:nonzero;stroke:none"
             id="path220"
             inkscape:connector-curvature="0" /><path
             d="m 678.398,636.801 93.6016,0 0,28.8008 -93.6016,0 0,-28.8008 z"
             style="fill:#000000;fill-opacity:1;fill-rule:nonzero;stroke:none"
             id="path222"
             inkscape:connector-curvature="0" /><path
             d="m 534.398,636.801 93.6016,0 0,28.8008 -93.6016,0 0,-28.8008 z"
             style="fill:#000000;fill-opacity:1;fill-rule:nonzero;stroke:none"
             id="path224"
             inkscape:connector-curvature="0" /><path
             d="m 610,500 14.3984,0 0,14.3984 -14.3984,0 L 610,500 z"
             style="fill:#000000;fill-opacity:1;fill-rule:nonzero;stroke:none"
             id="path226"
             inkscape:connector-curvature="0" /><path
             d="m 682,500 14.3984,0 0,14.3984 -14.3984,0 L 682,500 z"
             style="fill:#000000;fill-opacity:1;fill-rule:nonzero;stroke:none"
             id="path228"
             inkscape:connector-curvature="0" /><path
             d="m 610,572 14.3984,0 0,14.3984 -14.3984,0 L 610,572 z"
             style="fill:#000000;fill-opacity:1;fill-rule:nonzero;stroke:none"
             id="path230"
             inkscape:connector-curvature="0" /><path
             d="m 682,572 14.3984,0 0,14.3984 -14.3984,0 L 682,572 z"
             style="fill:#000000;fill-opacity:1;fill-rule:nonzero;stroke:none"
             id="path232"
             inkscape:connector-curvature="0" /><path
             d="m 610,644 14.3984,0 0,14.3984 -14.3984,0 L 610,644 z"
             style="fill:#000000;fill-opacity:1;fill-rule:nonzero;stroke:none"
             id="path234"
             inkscape:connector-curvature="0" /><path
             d="m 682,644 14.3984,0 0,14.3984 -14.3984,0 L 682,644 z"
             style="fill:#000000;fill-opacity:1;fill-rule:nonzero;stroke:none"
             id="path236"
             inkscape:connector-curvature="0" /><path
             d="m 588.398,543.199 57.602,0"
             style="fill:none;stroke:none"
             id="path238"
             inkscape:connector-curvature="0" /><path
             d="m 617.199,514.398 0,57.602"
             style="fill:none;stroke:none"
             id="path240"
             inkscape:connector-curvature="0" /><path
             transform="scale(1,-1)"
             style="fill:none;stroke:#000000;stroke-width:0.85774565;stroke-linecap:round;stroke-linejoin:round;stroke-miterlimit:10;stroke-opacity:1"
             d="m 501.02762,-715.32166 298.14163,0 0,269.76642 -298.14163,0 z"
             id="rect3297" /><path
             transform="scale(1,-1)"
             style="fill:none;stroke:#000000;stroke-width:0.99212599;stroke-linecap:round;stroke-linejoin:round;stroke-miterlimit:10;stroke-opacity:1"
             d="m 1060.8439,-719.98145 266.4721,0 0,171.8667 -266.4721,0 z"
             id="rect3299" /><path
             transform="scale(1,-1)"
             style="fill:none;stroke:#000000;stroke-width:1.13164747;stroke-linecap:round;stroke-linejoin:round;stroke-miterlimit:10;stroke-opacity:1"
             d="m 270.95804,-825.55426 1226.57796,0 0,625.8324 -1226.57796,0 z"
             id="rect3301" /><g
             transform="scale(1,-1)"
             style="font-size:96px;font-style:normal;font-variant:normal;font-weight:normal;font-stretch:normal;line-height:125%;letter-spacing:0px;word-spacing:0px;fill:#000000;fill-opacity:1;stroke:none;font-family:Ubuntu;-inkscape-font-specification:Ubuntu"
             id="text3303"><path
               d="m 824,-521.11526 c 1.36533,-0.3413 3.15733,-0.70396 5.376,-1.088 2.26133,-0.38396 4.86399,-0.57596 7.808,-0.576 2.13332,4e-5 3.92532,0.2987 5.376,0.896 1.45065,0.5547 2.66665,1.3867 3.648,2.496 0.29864,-0.2133 0.76798,-0.51197 1.408,-0.896 0.63998,-0.38397 1.42931,-0.74663 2.368,-1.088 0.93864,-0.38396 1.98397,-0.70396 3.136,-0.96 1.15197,-0.29863 2.3893,-0.44796 3.712,-0.448 2.55996,4e-5 4.65063,0.38404 6.272,1.152 1.62129,0.72537 2.87996,1.7707 3.776,3.136 0.93862,1.36536 1.55729,2.9867 1.856,4.864 0.34129,1.87736 0.51195,3.92536 0.512,6.144 l 0,18.688 -5.952,0 0,-17.408 c -4e-5,-1.96264 -0.10671,-3.64798 -0.32,-5.056 -0.17071,-1.40797 -0.53337,-2.58131 -1.088,-3.52 -0.51204,-0.93864 -1.23737,-1.6213 -2.176,-2.048 -0.89604,-0.4693 -2.06937,-0.70397 -3.52,-0.704 -2.00536,3e-5 -3.66936,0.27736 -4.992,0.832 -1.28003,0.51203 -2.15469,0.98136 -2.624,1.408 0.34131,1.10936 0.59731,2.32536 0.768,3.648 0.17064,1.32269 0.25597,2.70936 0.256,4.16 l 0,18.688 -5.952,0 0,-17.408 c -2e-5,-1.96264 -0.10669,-3.64798 -0.32,-5.056 -0.21335,-1.40797 -0.59735,-2.58131 -1.152,-3.52 -0.51202,-0.93864 -1.23735,-1.6213 -2.176,-2.048 -0.89602,-0.4693 -2.04801,-0.70397 -3.456,-0.704 -0.59735,3e-5 -1.23734,0.0214 -1.92,0.064 -0.68268,0.0427 -1.34401,0.1067 -1.984,0.192 -0.59734,0.0427 -1.15201,0.1067 -1.664,0.192 -0.51201,0.0854 -0.85334,0.14936 -1.024,0.192 l 0,28.096 -5.952,0 0,-32.32"
               style="font-size:64px"
               id="path3526" /><path
               d="m 885.077,-488.79526 -5.952,0 0,-33.28 5.952,0 0,33.28 m -3.008,-39.296 c -1.06667,4e-5 -1.984,-0.34129 -2.752,-1.024 -0.72533,-0.72529 -1.088,-1.68529 -1.088,-2.88 0,-1.19462 0.36267,-2.13329 1.088,-2.816 0.768,-0.72528 1.68533,-1.08795 2.752,-1.088 1.06666,5e-5 1.96266,0.36272 2.688,1.088 0.76799,0.68271 1.15199,1.62138 1.152,2.816 -10e-6,1.19471 -0.38401,2.15471 -1.152,2.88 -0.72534,0.68271 -1.62134,1.02404 -2.688,1.024"
               style="font-size:64px"
               id="path3528" /><path
               d="m 903.119,-493.08326 c 2.43199,10e-6 4.22399,-0.31999 5.376,-0.96 1.19465,-0.63999 1.79198,-1.66399 1.792,-3.072 -2e-5,-1.45065 -0.57601,-2.60265 -1.728,-3.456 -1.15201,-0.85332 -3.05068,-1.81332 -5.696,-2.88 -1.28001,-0.51198 -2.51734,-1.02398 -3.712,-1.536 -1.152,-0.55465 -2.15467,-1.19465 -3.008,-1.92 -0.85333,-0.72531 -1.536,-1.59998 -2.048,-2.624 -0.512,-1.02398 -0.768,-2.28264 -0.768,-3.776 0,-2.94397 1.088,-5.2693 3.264,-6.976 2.176,-1.7493 5.14133,-2.62396 8.896,-2.624 0.93866,4e-5 1.87732,0.064 2.816,0.192 0.93865,0.0854 1.81332,0.21337 2.624,0.384 0.81065,0.12804 1.51465,0.27737 2.112,0.448 0.63998,0.1707 1.13065,0.32004 1.472,0.448 l -1.088,5.12 c -0.64002,-0.3413 -1.64268,-0.68264 -3.008,-1.024 -1.36535,-0.38397 -3.00801,-0.57597 -4.928,-0.576 -1.66401,3e-5 -3.11467,0.34136 -4.352,1.024 -1.23734,0.64003 -1.856,1.66403 -1.856,3.072 0,0.72536 0.128,1.36536 0.384,1.92 0.29866,0.55469 0.72533,1.06669 1.28,1.536 0.59733,0.42669 1.32266,0.83202 2.176,1.216 0.85332,0.38402 1.87732,0.78936 3.072,1.216 1.57865,0.59735 2.98665,1.19469 4.224,1.792 1.23732,0.55469 2.28265,1.21602 3.136,1.984 0.89598,0.76802 1.57865,1.70668 2.048,2.816 0.46931,1.06668 0.70398,2.38935 0.704,3.968 -2e-5,3.07201 -1.15202,5.39734 -3.456,6.976 -2.26135,1.57867 -5.50401,2.368 -9.728,2.368 -2.94401,0 -5.248,-0.256 -6.912,-0.768 -1.664,-0.46933 -2.79466,-0.832 -3.392,-1.088 l 1.088,-5.12 c 0.68267,0.25601 1.77067,0.64001 3.264,1.152 1.49333,0.51201 3.47733,0.76801 5.952,0.768"
               style="font-size:64px"
               id="path3530" /><path
               d="m 953.251,-505.43526 c -3e-5,2.64535 -0.38403,5.03468 -1.152,7.168 -0.76803,2.13334 -1.85603,3.96801 -3.264,5.504 -1.36536,1.536 -3.00802,2.73067 -4.928,3.584 -1.92002,0.81067 -4.01068,1.216 -6.272,1.216 -2.26135,0 -4.35201,-0.40533 -6.272,-1.216 -1.92001,-0.85333 -3.584,-2.048 -4.992,-3.584 -1.36533,-1.53599 -2.432,-3.37066 -3.2,-5.504 -0.768,-2.13332 -1.152,-4.52265 -1.152,-7.168 0,-2.60264 0.384,-4.97064 1.152,-7.104 0.768,-2.17597 1.83467,-4.03197 3.2,-5.568 1.408,-1.53597 3.07199,-2.7093 4.992,-3.52 1.91999,-0.8533 4.01065,-1.27996 6.272,-1.28 2.26132,4e-5 4.35198,0.4267 6.272,1.28 1.91998,0.8107 3.56264,1.98403 4.928,3.52 1.40797,1.53603 2.49597,3.39203 3.264,5.568 0.76797,2.13336 1.15197,4.50136 1.152,7.104 m -6.208,0 c -2e-5,-3.75464 -0.85336,-6.71997 -2.56,-8.896 -1.66402,-2.21864 -3.94668,-3.32797 -6.848,-3.328 -2.90134,3e-5 -5.20534,1.10936 -6.912,3.328 -1.66401,2.17603 -2.496,5.14136 -2.496,8.896 0,3.75468 0.83199,6.74135 2.496,8.96 1.70666,2.17601 4.01066,3.26401 6.912,3.264 2.90132,10e-6 5.18398,-1.08799 6.848,-3.264 1.70664,-2.21865 2.55998,-5.20532 2.56,-8.96"
               style="font-size:64px"
               id="path3532" /></g><g
             transform="scale(1,-1)"
             style="font-size:96px;font-style:normal;font-variant:normal;font-weight:normal;font-stretch:normal;line-height:125%;letter-spacing:0px;word-spacing:0px;fill:#000000;fill-opacity:1;stroke:none;font-family:Ubuntu;-inkscape-font-specification:Ubuntu"
             id="text3303-1"><path
               d="m 352,-591.00781 c 1.36533,-0.3413 3.15733,-0.70396 5.376,-1.088 2.26133,-0.38396 4.86399,-0.57596 7.808,-0.576 2.13332,4e-5 3.92532,0.29871 5.376,0.896 1.45065,0.5547 2.66665,1.3867 3.648,2.496 0.29864,-0.2133 0.76798,-0.51196 1.408,-0.896 0.63998,-0.38396 1.42931,-0.74663 2.368,-1.088 0.93864,-0.38396 1.98397,-0.70396 3.136,-0.96 1.15197,-0.29863 2.3893,-0.44796 3.712,-0.448 2.55996,4e-5 4.65063,0.38404 6.272,1.152 1.62129,0.72537 2.87996,1.7707 3.776,3.136 0.93862,1.36537 1.55729,2.9867 1.856,4.864 0.34129,1.87736 0.51195,3.92536 0.512,6.144 l 0,18.688 -5.952,0 0,-17.408 c -4e-5,-1.96264 -0.10671,-3.64797 -0.32,-5.056 -0.17071,-1.40797 -0.53337,-2.5813 -1.088,-3.52 -0.51204,-0.93863 -1.23737,-1.6213 -2.176,-2.048 -0.89604,-0.4693 -2.06937,-0.70397 -3.52,-0.704 -2.00536,3e-5 -3.66936,0.27737 -4.992,0.832 -1.28003,0.51203 -2.15469,0.98137 -2.624,1.408 0.34131,1.10936 0.59731,2.32536 0.768,3.648 0.17064,1.32269 0.25597,2.70936 0.256,4.16 l 0,18.688 -5.952,0 0,-17.408 c -2e-5,-1.96264 -0.10669,-3.64797 -0.32,-5.056 -0.21335,-1.40797 -0.59735,-2.5813 -1.152,-3.52 -0.51202,-0.93863 -1.23735,-1.6213 -2.176,-2.048 -0.89602,-0.4693 -2.04801,-0.70397 -3.456,-0.704 -0.59735,3e-5 -1.23734,0.0214 -1.92,0.064 -0.68268,0.0427 -1.34401,0.1067 -1.984,0.192 -0.59734,0.0427 -1.15201,0.1067 -1.664,0.192 -0.51201,0.0854 -0.85334,0.14937 -1.024,0.192 l 0,28.096 -5.952,0 0,-32.32"
               style="font-size:64px"
               id="path3535" /><path
               d="m 436.501,-575.32781 c -3e-5,2.64535 -0.38403,5.03468 -1.152,7.168 -0.76803,2.13335 -1.85603,3.96801 -3.264,5.504 -1.36536,1.53601 -3.00802,2.73067 -4.928,3.584 -1.92002,0.81067 -4.01068,1.216 -6.272,1.216 -2.26135,0 -4.35201,-0.40533 -6.272,-1.216 -1.92001,-0.85333 -3.584,-2.04799 -4.992,-3.584 -1.36533,-1.53599 -2.432,-3.37065 -3.2,-5.504 -0.768,-2.13332 -1.152,-4.52265 -1.152,-7.168 0,-2.60264 0.384,-4.97064 1.152,-7.104 0.768,-2.17597 1.83467,-4.03197 3.2,-5.568 1.408,-1.53596 3.07199,-2.7093 4.992,-3.52 1.91999,-0.85329 4.01065,-1.27996 6.272,-1.28 2.26132,4e-5 4.35198,0.42671 6.272,1.28 1.91998,0.8107 3.56264,1.98404 4.928,3.52 1.40797,1.53603 2.49597,3.39203 3.264,5.568 0.76797,2.13336 1.15197,4.50136 1.152,7.104 m -6.208,0 c -2e-5,-3.75464 -0.85336,-6.71997 -2.56,-8.896 -1.66402,-2.21863 -3.94668,-3.32797 -6.848,-3.328 -2.90134,3e-5 -5.20534,1.10937 -6.912,3.328 -1.66401,2.17603 -2.496,5.14136 -2.496,8.896 0,3.75468 0.83199,6.74135 2.496,8.96 1.70666,2.17601 4.01066,3.26401 6.912,3.264 2.90132,10e-6 5.18398,-1.08799 6.848,-3.264 1.70664,-2.21865 2.55998,-5.20532 2.56,-8.96"
               style="font-size:64px"
               id="path3537" /><path
               d="m 452.619,-562.97581 c 2.43199,10e-6 4.22399,-0.31999 5.376,-0.96 1.19465,-0.63999 1.79198,-1.66399 1.792,-3.072 -2e-5,-1.45065 -0.57601,-2.60265 -1.728,-3.456 -1.15201,-0.85332 -3.05068,-1.81331 -5.696,-2.88 -1.28001,-0.51198 -2.51734,-1.02398 -3.712,-1.536 -1.152,-0.55465 -2.15467,-1.19464 -3.008,-1.92 -0.85333,-0.72531 -1.536,-1.59998 -2.048,-2.624 -0.512,-1.02397 -0.768,-2.28264 -0.768,-3.776 0,-2.94397 1.088,-5.2693 3.264,-6.976 2.176,-1.7493 5.14133,-2.62396 8.896,-2.624 0.93866,4e-5 1.87732,0.064 2.816,0.192 0.93865,0.0854 1.81332,0.21337 2.624,0.384 0.81065,0.12804 1.51465,0.27737 2.112,0.448 0.63998,0.1707 1.13065,0.32004 1.472,0.448 l -1.088,5.12 c -0.64002,-0.3413 -1.64268,-0.68263 -3.008,-1.024 -1.36535,-0.38397 -3.00801,-0.57597 -4.928,-0.576 -1.66401,3e-5 -3.11467,0.34137 -4.352,1.024 -1.23734,0.64003 -1.856,1.66403 -1.856,3.072 0,0.72536 0.128,1.36536 0.384,1.92 0.29866,0.55469 0.72533,1.06669 1.28,1.536 0.59733,0.42669 1.32266,0.83203 2.176,1.216 0.85332,0.38402 1.87732,0.78936 3.072,1.216 1.57865,0.59736 2.98665,1.19469 4.224,1.792 1.23732,0.55469 2.28265,1.21602 3.136,1.984 0.89598,0.76802 1.57865,1.70669 2.048,2.816 0.46931,1.06668 0.70398,2.38935 0.704,3.968 -2e-5,3.07201 -1.15202,5.39734 -3.456,6.976 -2.26135,1.57867 -5.50401,2.368 -9.728,2.368 -2.94401,0 -5.248,-0.256 -6.912,-0.768 -1.664,-0.46933 -2.79466,-0.83199 -3.392,-1.088 l 1.088,-5.12 c 0.68267,0.25601 1.77067,0.64001 3.264,1.152 1.49333,0.51201 3.47733,0.76801 5.952,0.768"
               style="font-size:64px"
               id="path3539" /><path
               d="m 479.327,-558.68781 -5.952,0 0,-33.28 5.952,0 0,33.28 m -3.008,-39.296 c -1.06667,4e-5 -1.984,-0.34129 -2.752,-1.024 -0.72533,-0.72529 -1.088,-1.68529 -1.088,-2.88 0,-1.19462 0.36267,-2.13328 1.088,-2.816 0.768,-0.72528 1.68533,-1.08795 2.752,-1.088 1.06666,5e-5 1.96266,0.36272 2.688,1.088 0.76799,0.68272 1.15199,1.62138 1.152,2.816 -10e-6,1.19471 -0.38401,2.15471 -1.152,2.88 -0.72534,0.68271 -1.62134,1.02404 -2.688,1.024"
               style="font-size:64px"
               id="path3541" /></g><g
             transform="scale(1,-1)"
             style="font-size:96px;font-style:normal;font-variant:normal;font-weight:normal;font-stretch:normal;line-height:125%;letter-spacing:0px;word-spacing:0px;fill:#000000;fill-opacity:1;stroke:none;font-family:Ubuntu;-inkscape-font-specification:Ubuntu"
             id="text3303-12"><path
               d="m 834.304,-562.74338 c 2.43199,0 4.22399,-0.32 5.376,-0.96 1.19465,-0.64 1.79198,-1.664 1.792,-3.072 -2e-5,-1.45066 -0.57602,-2.60266 -1.728,-3.456 -1.15201,-0.85332 -3.05068,-1.81332 -5.696,-2.88 -1.28001,-0.51199 -2.51734,-1.02399 -3.712,-1.536 -1.15201,-0.55465 -2.15467,-1.19465 -3.008,-1.92 -0.85334,-0.72532 -1.536,-1.59998 -2.048,-2.624 -0.512,-1.02398 -0.768,-2.28265 -0.768,-3.776 0,-2.94398 1.088,-5.26931 3.264,-6.976 2.17599,-1.7493 5.14132,-2.62397 8.896,-2.624 0.93865,3e-5 1.87732,0.064 2.816,0.192 0.93865,0.0854 1.81332,0.21336 2.624,0.384 0.81065,0.12803 1.51465,0.27736 2.112,0.448 0.63998,0.1707 1.13065,0.32003 1.472,0.448 l -1.088,5.12 c -0.64002,-0.34131 -1.64269,-0.68264 -3.008,-1.024 -1.36535,-0.38397 -3.00801,-0.57597 -4.928,-0.576 -1.66401,3e-5 -3.11468,0.34136 -4.352,1.024 -1.23734,0.64002 -1.85601,1.66402 -1.856,3.072 -1e-5,0.72535 0.12799,1.36535 0.384,1.92 0.29866,0.55469 0.72533,1.06669 1.28,1.536 0.59732,0.42668 1.32266,0.83202 2.176,1.216 0.85332,0.38402 1.87732,0.78935 3.072,1.216 1.57865,0.59735 2.98665,1.19468 4.224,1.792 1.23731,0.55468 2.28265,1.21601 3.136,1.984 0.89598,0.76801 1.57864,1.70668 2.048,2.816 0.46931,1.06667 0.70398,2.38934 0.704,3.968 -2e-5,3.072 -1.15202,5.39733 -3.456,6.976 -2.26135,1.57866 -5.50401,2.368 -9.728,2.368 -2.94401,0 -5.24801,-0.256 -6.912,-0.768 -1.664,-0.46934 -2.79467,-0.832 -3.392,-1.088 l 1.088,-5.12 c 0.68266,0.256 1.77066,0.64 3.264,1.152 1.49333,0.512 3.47733,0.768 5.952,0.768"
               style="font-size:64px"
               id="path3544" /><path
               d="m 869.524,-557.68738 c -2.68801,0 -5.05601,-0.42667 -7.104,-1.28 -2.00534,-0.85334 -3.71201,-2.048 -5.12,-3.584 -1.36534,-1.536 -2.38934,-3.34933 -3.072,-5.44 -0.68267,-2.13332 -1.024,-4.47999 -1.024,-7.04 0,-2.55998 0.36267,-4.90665 1.088,-7.04 0.768,-2.13331 1.83466,-3.96798 3.2,-5.504 1.36533,-1.57864 3.02933,-2.79464 4.992,-3.648 2.00532,-0.89597 4.22399,-1.34397 6.656,-1.344 1.49332,3e-5 2.98665,0.12803 4.48,0.384 1.49331,0.25603 2.92264,0.66136 4.288,1.216 l -1.344,5.056 c -0.89602,-0.42664 -1.94136,-0.76798 -3.136,-1.024 -1.15202,-0.25597 -2.38935,-0.38397 -3.712,-0.384 -3.32801,3e-5 -5.88801,1.04536 -7.68,3.136 -1.74934,2.09069 -2.62401,5.14135 -2.624,9.152 -1e-5,1.79201 0.19199,3.43468 0.576,4.928 0.42666,1.49334 1.06666,2.77334 1.92,3.84 0.89599,1.06667 2.02666,1.89867 3.392,2.496 1.36532,0.55467 3.02932,0.832 4.992,0.832 1.57865,0 3.00798,-0.14933 4.288,-0.448 1.27998,-0.29866 2.28264,-0.61866 3.008,-0.96 l 0.832,4.992 c -0.34136,0.21333 -0.83203,0.42666 -1.472,0.64 -0.64002,0.17066 -1.36536,0.32 -2.176,0.448 -0.81069,0.17066 -1.68535,0.29866 -2.624,0.384 -0.89602,0.128 -1.77068,0.192 -2.624,0.192"
               style="font-size:64px"
               id="path3546" /><path
               d="m 896.842,-576.75938 c 1.27998,0.98135 2.62398,2.19735 4.032,3.648 1.45065,1.45068 2.85865,3.02934 4.224,4.736 1.40798,1.664 2.73064,3.37067 3.968,5.12 1.23731,1.70667 2.28264,3.30666 3.136,4.8 l -6.976,0 c -0.89602,-1.49334 -1.94135,-3.008 -3.136,-4.544 -1.15202,-1.57866 -2.36802,-3.072 -3.648,-4.48 -1.28002,-1.45066 -2.58135,-2.77332 -3.904,-3.968 -1.32268,-1.19466 -2.58134,-2.19732 -3.776,-3.008 l 0,16 -5.952,0 0,-48.64 5.952,-1.024 0,30.336 c 1.02399,-1.02398 2.15466,-2.15465 3.392,-3.392 1.23732,-1.23731 2.45332,-2.49598 3.648,-3.776 1.19465,-1.27998 2.32532,-2.49597 3.392,-3.648 1.06665,-1.19464 1.98398,-2.23997 2.752,-3.136 l 6.976,0 c -0.98136,1.0667 -2.04803,2.24003 -3.2,3.52 -1.15202,1.28003 -2.34669,2.58136 -3.584,3.904 -1.23735,1.28002 -2.49602,2.58135 -3.776,3.904 -1.23735,1.28002 -2.41068,2.49602 -3.52,3.648"
               style="font-size:64px"
               id="path3548" /></g><g
             transform="scale(1,-1)"
             style="font-size:96px;font-style:normal;font-variant:normal;font-weight:normal;font-stretch:normal;line-height:125%;letter-spacing:0px;word-spacing:0px;fill:#000000;fill-opacity:1;stroke:none;font-family:Ubuntu;-inkscape-font-specification:Ubuntu"
             id="text3303-12-0"><path
               d="m 422.08001,-522.8552 c -1.66403,6.22937 -3.62669,12.20269 -5.888,17.92 -2.21869,5.71735 -4.37335,10.83734 -6.464,15.36 l -5.376,0 c -2.09067,-4.52266 -4.26667,-9.64265 -6.528,-15.36 -2.21867,-5.71731 -4.16,-11.69063 -5.824,-17.92 l 6.4,0 c 0.512,2.0907 1.10933,4.3307 1.792,6.72 0.72533,2.3467 1.47199,4.69336 2.24,7.04 0.81066,2.30402 1.62132,4.54402 2.432,6.72 0.81066,2.17602 1.57865,4.11735 2.304,5.824 0.72532,-1.70665 1.49332,-3.64798 2.304,-5.824 0.81065,-2.17598 1.59998,-4.41598 2.368,-6.72 0.81065,-2.34664 1.55731,-4.6933 2.24,-7.04 0.72531,-2.3893 1.34398,-4.6293 1.856,-6.72 l 6.144,0"
               style="font-size:64px"
               id="path3551" /><path
               d="m 441.72505,-488.8072 c -2.68801,0 -5.05601,-0.42666 -7.104,-1.28 -2.00534,-0.85333 -3.71201,-2.04799 -5.12,-3.584 -1.36534,-1.53599 -2.38934,-3.34932 -3.072,-5.44 -0.68267,-2.13332 -1.024,-4.47998 -1.024,-7.04 0,-2.55998 0.36267,-4.90664 1.088,-7.04 0.768,-2.1333 1.83466,-3.96797 3.2,-5.504 1.36533,-1.57863 3.02932,-2.79463 4.992,-3.648 2.00532,-0.89596 4.22399,-1.34396 6.656,-1.344 1.49331,4e-5 2.98665,0.12804 4.48,0.384 1.49331,0.25604 2.92264,0.66137 4.288,1.216 l -1.344,5.056 c -0.89602,-0.42663 -1.94136,-0.76797 -3.136,-1.024 -1.15202,-0.25597 -2.38935,-0.38397 -3.712,-0.384 -3.32801,3e-5 -5.88801,1.04537 -7.68,3.136 -1.74934,2.09069 -2.62401,5.14136 -2.624,9.152 -10e-6,1.79202 0.19199,3.43468 0.576,4.928 0.42666,1.49335 1.06666,2.77335 1.92,3.84 0.89599,1.06668 2.02665,1.89868 3.392,2.496 1.36532,0.55468 3.02932,0.83201 4.992,0.832 1.57865,1e-5 3.00798,-0.14932 4.288,-0.448 1.27998,-0.29866 2.28264,-0.61866 3.008,-0.96 l 0.832,4.992 c -0.34136,0.21334 -0.83203,0.42667 -1.472,0.64 -0.64002,0.17067 -1.36536,0.32 -2.176,0.448 -0.81069,0.17067 -1.68535,0.29867 -2.624,0.384 -0.89602,0.128 -1.77068,0.192 -2.624,0.192"
               style="font-size:64px"
               id="path3553" /><path
               d="m 471.47505,-488.8072 c -2.68801,0 -5.05601,-0.42666 -7.104,-1.28 -2.00534,-0.85333 -3.71201,-2.04799 -5.12,-3.584 -1.36534,-1.53599 -2.38934,-3.34932 -3.072,-5.44 -0.68267,-2.13332 -1.024,-4.47998 -1.024,-7.04 0,-2.55998 0.36267,-4.90664 1.088,-7.04 0.768,-2.1333 1.83466,-3.96797 3.2,-5.504 1.36533,-1.57863 3.02932,-2.79463 4.992,-3.648 2.00532,-0.89596 4.22399,-1.34396 6.656,-1.344 1.49331,4e-5 2.98665,0.12804 4.48,0.384 1.49331,0.25604 2.92264,0.66137 4.288,1.216 l -1.344,5.056 c -0.89602,-0.42663 -1.94136,-0.76797 -3.136,-1.024 -1.15202,-0.25597 -2.38935,-0.38397 -3.712,-0.384 -3.32801,3e-5 -5.88801,1.04537 -7.68,3.136 -1.74934,2.09069 -2.62401,5.14136 -2.624,9.152 -10e-6,1.79202 0.19199,3.43468 0.576,4.928 0.42666,1.49335 1.06666,2.77335 1.92,3.84 0.89599,1.06668 2.02665,1.89868 3.392,2.496 1.36532,0.55468 3.02932,0.83201 4.992,0.832 1.57865,1e-5 3.00798,-0.14932 4.288,-0.448 1.27998,-0.29866 2.28264,-0.61866 3.008,-0.96 l 0.832,4.992 c -0.34136,0.21334 -0.83203,0.42667 -1.472,0.64 -0.64002,0.17067 -1.36536,0.32 -2.176,0.448 -0.81069,0.17067 -1.68535,0.29867 -2.624,0.384 -0.89602,0.128 -1.77068,0.192 -2.624,0.192"
               style="font-size:64px"
               id="path3555" /></g><g
             transform="scale(1,-1)"
             style="font-size:96px;font-style:normal;font-variant:normal;font-weight:normal;font-stretch:normal;line-height:125%;letter-spacing:0px;word-spacing:0px;fill:#000000;fill-opacity:1;stroke:none;font-family:Ubuntu;-inkscape-font-specification:Ubuntu"
             id="text3303-12-0-6"><path
               d="m 398.71999,-634.70367 c -0.51202,0.34133 -1.51469,0.78933 -3.008,1.344 -1.45069,0.512 -3.15735,0.768 -5.12,0.768 -2.00535,0 -3.90401,-0.32 -5.696,-0.96 -1.74934,-0.64 -3.28534,-1.62133 -4.608,-2.944 -1.32267,-1.36533 -2.368,-3.05066 -3.136,-5.056 -0.768,-2.00532 -1.152,-4.39465 -1.152,-7.168 0,-2.43198 0.36267,-4.65065 1.088,-6.656 0.72533,-2.04798 1.77066,-3.79731 3.136,-5.248 1.40799,-1.4933 3.11466,-2.6453 5.12,-3.456 2.00532,-0.8533 4.26665,-1.27997 6.784,-1.28 2.77331,3e-5 5.18398,0.21337 7.232,0.64 2.09064,0.38403 3.83997,0.7467 5.248,1.088 l 0,29.696 c -3e-5,5.12 -1.32269,8.83199 -3.968,11.136 -2.64536,2.30399 -6.65602,3.45599 -12.032,3.456 -2.09068,-10e-6 -4.07468,-0.17068 -5.952,-0.512 -1.83467,-0.34135 -3.43467,-0.74668 -4.8,-1.216 l 1.088,-5.184 c 1.19466,0.46933 2.64533,0.87466 4.352,1.216 1.74932,0.38399 3.56265,0.57599 5.44,0.576 3.54132,-10e-6 6.07998,-0.70401 7.616,-2.112 1.57864,-1.408 2.36798,-3.648 2.368,-6.72 l 0,-1.408 m -0.064,-24.704 c -0.59736,-0.17064 -1.40802,-0.31997 -2.432,-0.448 -0.98135,-0.17064 -2.32535,-0.25597 -4.032,-0.256 -3.20001,3e-5 -5.67468,1.04536 -7.424,3.136 -1.70667,2.09069 -2.56001,4.86402 -2.56,8.32 -10e-6,1.92001 0.23466,3.56268 0.704,4.928 0.51199,1.36534 1.17332,2.49601 1.984,3.392 0.85332,0.89601 1.81332,1.55734 2.88,1.984 1.10932,0.42667 2.23999,0.64 3.392,0.64 1.57865,0 3.02931,-0.21333 4.352,-0.64 1.32264,-0.46933 2.36798,-1.00266 3.136,-1.6 l 0,-19.456"
               style="font-size:64px"
               id="path3558" /><path
               d="m 414.85599,-663.69567 c 1.36533,-0.3413 3.17866,-0.70397 5.44,-1.088 2.26132,-0.38397 4.86399,-0.57597 7.808,-0.576 2.64531,3e-5 4.84265,0.38403 6.592,1.152 1.74931,0.72536 3.13597,1.7707 4.16,3.136 1.06664,1.32269 1.8133,2.92269 2.24,4.8 0.42664,1.87735 0.63997,3.94669 0.64,6.208 l 0,18.688 -5.952,0 0,-17.408 c -2e-5,-2.04798 -0.14936,-3.79731 -0.448,-5.248 -0.25602,-1.45064 -0.70402,-2.62398 -1.344,-3.52 -0.64002,-0.89597 -1.49335,-1.53597 -2.56,-1.92 -1.06668,-0.42664 -2.38935,-0.63997 -3.968,-0.64 -0.64001,3e-5 -1.30135,0.0214 -1.984,0.064 -0.68268,0.0427 -1.34401,0.10669 -1.984,0.192 -0.59734,0.0427 -1.15201,0.10669 -1.664,0.192 -0.46934,0.0854 -0.81068,0.14936 -1.024,0.192 l 0,28.096 -5.952,0 0,-32.32"
               style="font-size:64px"
               id="path3560" /><path
               d="m 473.10999,-657.61567 c -0.72536,-0.59731 -1.77069,-1.17331 -3.136,-1.728 -1.36535,-0.55464 -2.85868,-0.83197 -4.48,-0.832 -1.70668,3e-5 -3.17868,0.32003 -4.416,0.96 -1.19468,0.59736 -2.17601,1.45069 -2.944,2.56 -0.76801,1.06669 -1.32267,2.34669 -1.664,3.84 -0.34134,1.49335 -0.51201,3.09335 -0.512,4.8 -10e-6,3.88268 0.95999,6.89068 2.88,9.024 1.91999,2.09067 4.47999,3.136 7.68,3.136 1.62131,0 2.96531,-0.064 4.032,-0.192 1.10931,-0.17066 1.96264,-0.34133 2.56,-0.512 l 0,-21.056 m 0,-22.4 5.952,-1.024 0,48.704 c -1.36536,0.384 -3.11469,0.768 -5.248,1.152 -2.13336,0.384 -4.58669,0.576 -7.36,0.576 -2.56001,0 -4.86401,-0.40534 -6.912,-1.216 -2.04801,-0.81067 -3.79734,-1.96267 -5.248,-3.456 -1.45067,-1.49333 -2.58134,-3.30666 -3.392,-5.44 -0.768,-2.17599 -1.152,-4.60799 -1.152,-7.296 0,-2.55998 0.32,-4.90665 0.96,-7.04 0.68266,-2.13331 1.664,-3.96797 2.944,-5.504 1.27999,-1.53597 2.83733,-2.73064 4.672,-3.584 1.87732,-0.8533 4.01065,-1.27997 6.4,-1.28 1.91998,3e-5 3.60531,0.25603 5.056,0.768 1.49331,0.51203 2.60264,1.0027 3.328,1.472 l 0,-16.832"
               style="font-size:64px"
               id="path3562" /></g><g
             transform="scale(1,-1)"
             style="font-size:96px;font-style:normal;font-variant:normal;font-weight:normal;font-stretch:normal;line-height:125%;letter-spacing:0px;word-spacing:0px;fill:#000000;fill-opacity:1;stroke:none;font-family:Ubuntu;-inkscape-font-specification:Ubuntu"
             id="text3303-12-0-6-2"><path
               d="m 836.288,-670.31499 c 0.51199,3e-5 1.08799,0.0427 1.728,0.128 0.68265,0.0427 1.34398,0.12803 1.984,0.256 0.63998,0.0854 1.21598,0.19203 1.728,0.32 0.55465,0.0854 0.95998,0.1707 1.216,0.256 l -1.024,5.184 c -0.46935,-0.17064 -1.25868,-0.36264 -2.368,-0.576 -1.06668,-0.25597 -2.45335,-0.38397 -4.16,-0.384 -1.10934,3e-5 -2.21868,0.12803 -3.328,0.384 -1.06667,0.21336 -1.77067,0.36269 -2.112,0.448 l 0,27.968 -5.952,0 0,-31.872 c 1.408,-0.51197 3.15733,-0.9813 5.248,-1.408 2.09066,-0.4693 4.43732,-0.70397 7.04,-0.704"
               style="font-size:64px"
               id="path3565" /><path
               d="m 846.894,-652.90699 c 0,-2.94398 0.42667,-5.50398 1.28,-7.68 0.85333,-2.21864 1.984,-4.05331 3.392,-5.504 1.408,-1.45064 3.02933,-2.53864 4.864,-3.264 1.83466,-0.7253 3.71199,-1.08797 5.632,-1.088 4.47998,3e-5 7.91465,1.40803 10.304,4.224 2.38931,2.77336 3.58397,7.01869 3.584,12.736 -3e-5,0.25601 -3e-5,0.59735 0,1.024 -3e-5,0.38401 -0.0214,0.74668 -0.064,1.088 l -22.784,0 c 0.256,3.45601 1.25866,6.08001 3.008,7.872 1.74932,1.792 4.47999,2.688 8.192,2.688 2.09065,0 3.83998,-0.17067 5.248,-0.512 1.45064,-0.384 2.53864,-0.74666 3.264,-1.088 l 0.832,4.992 c -0.72536,0.384 -2.00536,0.78933 -3.84,1.216 -1.79202,0.42666 -3.84002,0.64 -6.144,0.64 -2.90135,0 -5.41868,-0.42667 -7.552,-1.28 -2.09067,-0.896 -3.81867,-2.112 -5.184,-3.648 -1.36533,-1.536 -2.38933,-3.34933 -3.072,-5.44 -0.64,-2.13333 -0.96,-4.45866 -0.96,-6.976 m 22.848,-3.264 c 0.0427,-2.68798 -0.64002,-4.88531 -2.048,-6.592 -1.36535,-1.74931 -3.26402,-2.62397 -5.696,-2.624 -1.36535,3e-5 -2.58134,0.27736 -3.648,0.832 -1.02401,0.51202 -1.89867,1.19469 -2.624,2.048 -0.72534,0.85336 -1.30134,1.83469 -1.728,2.944 -0.38401,1.10935 -0.64,2.24002 -0.768,3.392 l 16.512,0"
               style="font-size:64px"
               id="path3567" /><path
               d="m 892.244,-640.61899 c 2.43199,0 4.22399,-0.32 5.376,-0.96 1.19465,-0.64 1.79198,-1.664 1.792,-3.072 -2e-5,-1.45066 -0.57601,-2.60266 -1.728,-3.456 -1.15201,-0.85332 -3.05068,-1.81332 -5.696,-2.88 -1.28001,-0.51199 -2.51734,-1.02399 -3.712,-1.536 -1.152,-0.55465 -2.15467,-1.19465 -3.008,-1.92 -0.85333,-0.72532 -1.536,-1.59998 -2.048,-2.624 -0.512,-1.02398 -0.768,-2.28265 -0.768,-3.776 0,-2.94398 1.088,-5.26931 3.264,-6.976 2.176,-1.7493 5.14133,-2.62397 8.896,-2.624 0.93866,3e-5 1.87732,0.064 2.816,0.192 0.93865,0.0854 1.81332,0.21336 2.624,0.384 0.81065,0.12803 1.51465,0.27736 2.112,0.448 0.63998,0.1707 1.13065,0.32003 1.472,0.448 l -1.088,5.12 c -0.64002,-0.34131 -1.64268,-0.68264 -3.008,-1.024 -1.36535,-0.38397 -3.00801,-0.57597 -4.928,-0.576 -1.66401,3e-5 -3.11467,0.34136 -4.352,1.024 -1.23734,0.64002 -1.856,1.66402 -1.856,3.072 0,0.72535 0.128,1.36535 0.384,1.92 0.29866,0.55469 0.72533,1.06669 1.28,1.536 0.59733,0.42668 1.32266,0.83202 2.176,1.216 0.85332,0.38402 1.87732,0.78935 3.072,1.216 1.57865,0.59735 2.98665,1.19468 4.224,1.792 1.23732,0.55468 2.28265,1.21601 3.136,1.984 0.89598,0.76801 1.57865,1.70668 2.048,2.816 0.46931,1.06667 0.70398,2.38934 0.704,3.968 -2e-5,3.072 -1.15202,5.39733 -3.456,6.976 -2.26135,1.57866 -5.50401,2.368 -9.728,2.368 -2.94401,0 -5.248,-0.256 -6.912,-0.768 -1.664,-0.46934 -2.79466,-0.832 -3.392,-1.088 l 1.088,-5.12 c 0.68267,0.256 1.77067,0.64 3.264,1.152 1.49333,0.512 3.47733,0.768 5.952,0.768"
               style="font-size:64px"
               id="path3569" /><path
               d="m 911.144,-652.90699 c 0,-2.94398 0.42667,-5.50398 1.28,-7.68 0.85333,-2.21864 1.984,-4.05331 3.392,-5.504 1.408,-1.45064 3.02933,-2.53864 4.864,-3.264 1.83466,-0.7253 3.71199,-1.08797 5.632,-1.088 4.47998,3e-5 7.91465,1.40803 10.304,4.224 2.38931,2.77336 3.58397,7.01869 3.584,12.736 -3e-5,0.25601 -3e-5,0.59735 0,1.024 -3e-5,0.38401 -0.0214,0.74668 -0.064,1.088 l -22.784,0 c 0.256,3.45601 1.25866,6.08001 3.008,7.872 1.74932,1.792 4.47999,2.688 8.192,2.688 2.09065,0 3.83998,-0.17067 5.248,-0.512 1.45064,-0.384 2.53864,-0.74666 3.264,-1.088 l 0.832,4.992 c -0.72536,0.384 -2.00536,0.78933 -3.84,1.216 -1.79202,0.42666 -3.84002,0.64 -6.144,0.64 -2.90135,0 -5.41868,-0.42667 -7.552,-1.28 -2.09067,-0.896 -3.81867,-2.112 -5.184,-3.648 -1.36533,-1.536 -2.38933,-3.34933 -3.072,-5.44 -0.64,-2.13333 -0.96,-4.45866 -0.96,-6.976 m 22.848,-3.264 c 0.0427,-2.68798 -0.64002,-4.88531 -2.048,-6.592 -1.36535,-1.74931 -3.26402,-2.62397 -5.696,-2.624 -1.36535,3e-5 -2.58134,0.27736 -3.648,0.832 -1.02401,0.51202 -1.89867,1.19469 -2.624,2.048 -0.72534,0.85336 -1.30134,1.83469 -1.728,2.944 -0.38401,1.10935 -0.64,2.24002 -0.768,3.392 l 16.512,0"
               style="font-size:64px"
               id="path3571" /><path
               d="m 954.318,-669.61099 12.608,0 0,4.992 -12.608,0 0,15.36 c -10e-6,1.66401 0.12799,3.05067 0.384,4.16 0.25599,1.06667 0.63999,1.92 1.152,2.56 0.51199,0.59734 1.15199,1.024 1.92,1.28 0.76799,0.256 1.66399,0.384 2.688,0.384 1.79199,0 3.22132,-0.192 4.288,-0.576 1.10932,-0.42666 1.87732,-0.72533 2.304,-0.896 l 1.152,4.928 c -0.59735,0.29866 -1.64268,0.66133 -3.136,1.088 -1.49335,0.46933 -3.20001,0.704 -5.12,0.704 -2.26134,0 -4.13867,-0.27734 -5.632,-0.832 -1.45067,-0.59734 -2.624,-1.472 -3.52,-2.624 -0.896,-1.152 -1.536,-2.56 -1.92,-4.224 -0.34133,-1.70666 -0.512,-3.66933 -0.512,-5.888 l 0,-29.696 5.952,-1.024 0,10.304"
               style="font-size:64px"
               id="path3573" /></g><g
             transform="scale(1,-1)"
             style="font-size:96px;font-style:normal;font-variant:normal;font-weight:normal;font-stretch:normal;line-height:125%;letter-spacing:0px;word-spacing:0px;fill:#000000;fill-opacity:1;stroke:none;font-family:Ubuntu;-inkscape-font-specification:Ubuntu"
             id="text3303-1-5"><path
               d="m 868.14371,-317.15278 c 2.90132,1e-5 5.01331,-0.49066 6.336,-1.472 1.32264,-0.98132 1.98398,-2.36799 1.984,-4.16 -2e-5,-1.06665 -0.23469,-1.98399 -0.704,-2.752 -0.42669,-0.76798 -1.06669,-1.45065 -1.92,-2.048 -0.81069,-0.63998 -1.81335,-1.21598 -3.008,-1.728 -1.19468,-0.55465 -2.56001,-1.08798 -4.096,-1.6 -1.53601,-0.55465 -3.02934,-1.15198 -4.48,-1.792 -1.40801,-0.68264 -2.66667,-1.51464 -3.776,-2.496 -1.06667,-0.98131 -1.94134,-2.15464 -2.624,-3.52 -0.64,-1.3653 -0.96,-3.00797 -0.96,-4.928 0,-4.01063 1.38666,-7.14663 4.16,-9.408 2.77333,-2.30396 6.54932,-3.45595 11.328,-3.456 2.77331,5e-5 5.22665,0.32005 7.36,0.96 2.17597,0.59738 3.88264,1.25871 5.12,1.984 l -2.496,6.528 c -1.45069,-0.81063 -3.05069,-1.4293 -4.8,-1.856 -1.70669,-0.42663 -3.47735,-0.63996 -5.312,-0.64 -2.17601,4e-5 -3.88268,0.44804 -5.12,1.344 -1.19468,0.89604 -1.79201,2.1547 -1.792,3.776 -10e-6,0.98137 0.19199,1.8347 0.576,2.56 0.42666,0.6827 1.00266,1.30136 1.728,1.856 0.76799,0.5547 1.64265,1.06669 2.624,1.536 1.02398,0.46936 2.13332,0.91736 3.328,1.344 2.09065,0.76803 3.94665,1.55736 5.568,2.368 1.66398,0.76802 3.05064,1.70669 4.16,2.816 1.15197,1.06669 2.02664,2.34669 2.624,3.84 0.5973,1.45068 0.89597,3.22135 0.896,5.312 -3e-5,4.01067 -1.42936,7.12534 -4.288,9.344 -2.81602,2.176 -6.95469,3.264 -12.416,3.264 -1.83468,0 -3.52001,-0.128 -5.056,-0.384 -1.49334,-0.21333 -2.83734,-0.49067 -4.032,-0.832 -1.152,-0.34133 -2.15467,-0.68267 -3.008,-1.024 -0.85333,-0.384 -1.536,-0.72533 -2.048,-1.024 l 2.368,-6.592 c 1.152,0.64001 2.70933,1.28001 4.672,1.92 1.96266,0.64001 4.33066,0.96001 7.104,0.96"
               style="font-size:64px;font-weight:500;text-align:end;text-anchor:end;-inkscape-font-specification:Ubuntu Medium"
               id="path3576" /><path
               d="m 898.48371,-333.34478 c -10e-6,2.43202 0.29866,4.65068 0.896,6.656 0.59732,1.96268 1.45065,3.64801 2.56,5.056 1.15199,1.36534 2.53865,2.43201 4.16,3.2 1.62131,0.76801 3.45598,1.15201 5.504,1.152 2.00531,10e-6 3.81864,-0.38399 5.44,-1.152 1.6213,-0.76799 2.98664,-1.83466 4.096,-3.2 1.15197,-1.40799 2.02663,-3.09332 2.624,-5.056 0.5973,-2.00532 0.89596,-4.22398 0.896,-6.656 -4e-5,-2.43198 -0.2987,-4.62931 -0.896,-6.592 -0.59737,-2.0053 -1.47203,-3.69063 -2.624,-5.056 -1.10936,-1.40796 -2.4747,-2.49596 -4.096,-3.264 -1.62136,-0.76796 -3.43469,-1.15196 -5.44,-1.152 -2.04802,4e-5 -3.88269,0.38404 -5.504,1.152 -1.62135,0.76804 -3.00801,1.85604 -4.16,3.264 -1.10935,1.40803 -1.96268,3.09336 -2.56,5.056 -0.59734,1.96269 -0.89601,4.16002 -0.896,6.592 m 34.624,0 c -4e-5,3.79735 -0.57604,7.14668 -1.728,10.048 -1.10938,2.90134 -2.64537,5.33334 -4.608,7.296 -1.92004,1.92 -4.18137,3.37067 -6.784,4.352 -2.6027,0.98133 -5.37603,1.472 -8.32,1.472 -2.94402,0 -5.73868,-0.49067 -8.384,-1.472 -2.60268,-0.98133 -4.88534,-2.432 -6.848,-4.352 -1.92001,-1.96266 -3.456,-4.39466 -4.608,-7.296 -1.152,-2.90132 -1.728,-6.25065 -1.728,-10.048 0,-3.79731 0.576,-7.1253 1.728,-9.984 1.152,-2.9013 2.70933,-5.3333 4.672,-7.296 2.00532,-1.96263 4.30932,-3.43462 6.912,-4.416 2.60265,-0.98129 5.35465,-1.47195 8.256,-1.472 2.90131,5e-5 5.6533,0.49071 8.256,1.472 2.60263,0.98138 4.86396,2.45337 6.784,4.416 1.96263,1.9627 3.51996,4.3947 4.672,7.296 1.15196,2.8587 1.72796,6.18669 1.728,9.984"
               style="font-size:64px;font-weight:500;text-align:end;text-anchor:end;-inkscape-font-specification:Ubuntu Medium"
               id="path3578" /><path
               d="m 941.89171,-355.48878 8.064,0 0,44.352 -8.064,0 0,-44.352"
               style="font-size:64px;font-weight:500;text-align:end;text-anchor:end;-inkscape-font-specification:Ubuntu Medium"
               id="path3580" /><path
               d="m 980.35371,-310.17678 c -3.32802,0 -6.31468,-0.512 -8.96,-1.536 -2.64534,-1.024 -4.88534,-2.51733 -6.72,-4.48 -1.83467,-2.00533 -3.24267,-4.43732 -4.224,-7.296 -0.98134,-2.85865 -1.472,-6.14398 -1.472,-9.856 0,-3.71197 0.55466,-6.9973 1.664,-9.856 1.152,-2.85863 2.70933,-5.2693 4.672,-7.232 1.96266,-2.00529 4.26665,-3.51996 6.912,-4.544 2.64532,-1.02395 5.48265,-1.53595 8.512,-1.536 1.83464,5e-5 3.49864,0.14938 4.992,0.448 1.4933,0.25604 2.79464,0.55471 3.904,0.896 1.1093,0.34138 2.02663,0.70404 2.752,1.088 0.7253,0.38404 1.2373,0.66138 1.536,0.832 l -2.368,6.592 c -1.02403,-0.63996 -2.49603,-1.2373 -4.416,-1.792 -1.87736,-0.5973 -3.92536,-0.89596 -6.144,-0.896 -1.92002,4e-5 -3.71202,0.34137 -5.376,1.024 -1.66402,0.64004 -3.11468,1.62137 -4.352,2.944 -1.19468,1.3227 -2.13335,2.9867 -2.816,4.992 -0.68268,2.00536 -1.02401,4.33069 -1.024,6.976 -10e-6,2.34669 0.25599,4.50135 0.768,6.464 0.55466,1.96268 1.38665,3.66935 2.496,5.12 1.10932,1.40801 2.51732,2.51734 4.224,3.328 1.70665,0.76801 3.75465,1.15201 6.144,1.152 2.85864,1e-5 5.18397,-0.27733 6.976,-0.832 1.79197,-0.59733 3.17863,-1.15199 4.16,-1.664 l 2.176,6.592 c -0.51204,0.34134 -1.21604,0.68267 -2.112,1.024 -0.85337,0.34133 -1.87737,0.68267 -3.072,1.024 -1.1947,0.29867 -2.5387,0.53333 -4.032,0.704 -1.49336,0.21333 -3.09336,0.32 -4.8,0.32"
               style="font-size:64px;font-weight:500;text-align:end;text-anchor:end;-inkscape-font-specification:Ubuntu Medium"
               id="path3582" /><path
               d="m 1044.3597,-323.04078 c 0,1.83468 -0.32,3.54134 -0.96,5.12 -0.64,1.57867 -1.6,2.944 -2.88,4.096 -1.28,1.152 -2.88,2.048 -4.8,2.688 -1.8773,0.64 -4.0533,0.96 -6.528,0.96 -2.9013,0 -5.312,-0.40533 -7.232,-1.216 -1.92,-0.81067 -3.456,-1.83466 -4.608,-3.072 -1.152,-1.23733 -1.984,-2.55999 -2.496,-3.968 -0.4693,-1.45066 -0.704,-2.81599 -0.704,-4.096 0,-1.27999 0.1707,-2.45332 0.512,-3.52 0.384,-1.10932 0.896,-2.11198 1.536,-3.008 0.64,-0.93865 1.3653,-1.79198 2.176,-2.56 0.8107,-0.76798 1.664,-1.45064 2.56,-2.048 -1.9627,-1.36531 -3.4347,-2.83731 -4.416,-4.416 -0.9387,-1.6213 -1.408,-3.58397 -1.408,-5.888 0,-1.66397 0.32,-3.24263 0.96,-4.736 0.6827,-1.53596 1.6427,-2.87996 2.88,-4.032 1.2373,-1.15196 2.7307,-2.06929 4.48,-2.752 1.7493,-0.68262 3.6907,-1.02395 5.824,-1.024 2.5173,5e-5 4.6507,0.36271 6.4,1.088 1.792,0.72538 3.2427,1.66404 4.352,2.816 1.152,1.15204 1.984,2.43204 2.496,3.84 0.512,1.40804 0.768,2.77337 0.768,4.096 0,2.3467 -0.64,4.43736 -1.92,6.272 -1.28,1.79203 -2.752,3.22136 -4.416,4.288 2.5173,1.36536 4.3733,2.94402 5.568,4.736 1.2373,1.79202 1.856,3.90401 1.856,6.336 m -22.592,0.384 c 0,0.64001 0.128,1.32268 0.384,2.048 0.256,0.72534 0.6827,1.38667 1.28,1.984 0.5973,0.59734 1.3653,1.10934 2.304,1.536 0.9387,0.38401 2.112,0.57601 3.52,0.576 1.28,1e-5 2.3893,-0.17066 3.328,-0.512 0.9387,-0.34133 1.7067,-0.78933 2.304,-1.344 0.5973,-0.59733 1.0453,-1.25866 1.344,-1.984 0.2987,-0.76799 0.448,-1.53599 0.448,-2.304 0,-1.19465 -0.2347,-2.23999 -0.704,-3.136 -0.4693,-0.89598 -1.152,-1.66398 -2.048,-2.304 -0.8533,-0.68265 -1.8773,-1.25865 -3.072,-1.728 -1.1947,-0.51198 -2.5173,-0.95998 -3.968,-1.344 -1.536,0.98135 -2.7733,2.17602 -3.712,3.584 -0.9387,1.36535 -1.408,3.00801 -1.408,4.928 m 13.952,-21.888 c 0,-0.55463 -0.128,-1.15197 -0.384,-1.792 -0.2133,-0.68263 -0.5973,-1.3013 -1.152,-1.856 -0.512,-0.55463 -1.1733,-1.02396 -1.984,-1.408 -0.8107,-0.38396 -1.792,-0.57596 -2.944,-0.576 -1.152,4e-5 -2.1547,0.19204 -3.008,0.576 -0.8107,0.34137 -1.472,0.8107 -1.984,1.408 -0.512,0.5547 -0.896,1.17337 -1.152,1.856 -0.256,0.64003 -0.384,1.28003 -0.384,1.92 0,1.62137 0.5973,3.15736 1.792,4.608 1.2373,1.45069 3.2853,2.60269 6.144,3.456 1.5787,-0.98131 2.816,-2.09064 3.712,-3.328 0.896,-1.27997 1.344,-2.9013 1.344,-4.864"
               style="font-size:64px;font-weight:500;text-align:end;text-anchor:end;-inkscape-font-specification:Ubuntu Medium"
               id="path3584" /><path
               d="m 1075.7057,-317.79278 c 0.4693,0.0427 1.088,0.0853 1.856,0.128 0.768,1e-5 1.8133,1e-5 3.136,0 5.4187,1e-5 9.4507,-1.36533 12.096,-4.096 2.688,-2.77332 4.032,-6.63465 4.032,-11.584 0,-5.03464 -1.3014,-8.89597 -3.904,-11.584 -2.6027,-2.68796 -6.6347,-4.03196 -12.096,-4.032 -2.3893,4e-5 -4.096,0.064 -5.12,0.192 l 0,30.976 m 29.568,-15.552 c 0,3.84002 -0.5974,7.18935 -1.792,10.048 -1.1947,2.81601 -2.9014,5.18401 -5.12,7.104 -2.176,1.87734 -4.8214,3.28534 -7.936,4.224 -3.072,0.896 -6.4853,1.344 -10.24,1.344 -1.792,0 -3.8187,-0.0853 -6.08,-0.256 -2.2613,-0.128 -4.416,-0.42667 -6.464,-0.896 l 0,-43.072 c 2.048,-0.46929 4.224,-0.76796 6.528,-0.896 2.304,-0.12796 4.352,-0.19195 6.144,-0.192 3.712,5e-5 7.104,0.44804 10.176,1.344 3.072,0.85338 5.696,2.21871 7.872,4.096 2.2186,1.8347 3.9253,4.18137 5.12,7.04 1.1946,2.81603 1.792,6.18669 1.792,10.112"
               style="font-size:64px;font-weight:500;text-align:end;text-anchor:end;-inkscape-font-specification:Ubuntu Medium"
               id="path3586" /><path
               d="m 1114.1417,-355.48878 8.064,0 0,44.352 -8.064,0 0,-44.352"
               style="font-size:64px;font-weight:500;text-align:end;text-anchor:end;-inkscape-font-specification:Ubuntu Medium"
               id="path3588" /><path
               d="m 1147.8037,-335.84078 c 1.92,-3.19997 3.7973,-6.44264 5.632,-9.728 1.8347,-3.2853 3.4986,-6.59196 4.992,-9.92 l 8.96,0 c -2.3894,4.52271 -4.8854,9.02404 -7.488,13.504 -2.56,4.43736 -5.312,8.91736 -8.256,13.44 l 0,17.408 -8.064,0 0,-17.28 c -2.944,-4.56531 -5.7173,-9.08797 -8.32,-13.568 -2.6027,-4.47996 -5.0987,-8.98129 -7.488,-13.504 l 9.472,0 c 1.4933,3.32804 3.136,6.6347 4.928,9.92 1.792,3.28536 3.6693,6.52803 5.632,9.728"
               style="font-size:64px;font-weight:500;text-align:end;text-anchor:end;-inkscape-font-specification:Ubuntu Medium"
               id="path3590" /><path
               d="m 1218.6787,-355.48878 0,6.976 -13.632,0 0,37.376 -8.128,0 0,-37.376 -13.632,0 0,-6.976 35.392,0"
               style="font-size:64px;font-weight:500;text-align:end;text-anchor:end;-inkscape-font-specification:Ubuntu Medium"
               id="path3592" /><path
               d="m 1224.7667,-311.13678 0,-44.352 28.48,0 0,6.848 -20.416,0 0,10.944 18.176,0 0,6.72 -18.176,0 0,12.992 21.952,0 0,6.848 -30.016,0"
               style="font-size:64px;font-weight:500;text-align:end;text-anchor:end;-inkscape-font-specification:Ubuntu Medium"
               id="path3594" /><path
               d="m 1288.5707,-311.13678 c -1.2374,-2.51733 -2.7947,-5.29066 -4.672,-8.32 -1.8773,-3.02932 -3.84,-5.95199 -5.888,-8.768 -0.8533,1.10935 -1.792,2.43201 -2.816,3.968 -0.9813,1.53601 -1.984,3.11468 -3.008,4.736 -0.9813,1.57867 -1.8987,3.11467 -2.752,4.608 -0.8533,1.49334 -1.536,2.752 -2.048,3.776 l -9.152,0 c 1.92,-3.62666 4.1387,-7.33866 6.656,-11.136 2.5173,-3.83998 5.248,-7.85065 8.192,-12.032 l -14.208,-21.184 9.6,0 9.792,15.168 9.664,-15.168 9.216,0 -14.016,21.12 c 3.2426,4.39469 6.1013,8.55468 8.576,12.48 2.5173,3.92534 4.6293,7.50934 6.336,10.752 l -9.472,0"
               style="font-size:64px;font-weight:500;text-align:end;text-anchor:end;-inkscape-font-specification:Ubuntu Medium"
               id="path3596" /><path
               d="m 1335.8827,-355.48878 0,6.976 -13.632,0 0,37.376 -8.128,0 0,-37.376 -13.632,0 0,-6.976 35.392,0"
               style="font-size:64px;font-weight:500;text-align:end;text-anchor:end;-inkscape-font-specification:Ubuntu Medium"
               id="path3598" /><path
               d="m 1347.0268,-333.34478 c 0,2.43202 0.2987,4.65068 0.896,6.656 0.5973,1.96268 1.4507,3.64801 2.56,5.056 1.152,1.36534 2.5387,2.43201 4.16,3.2 1.6213,0.76801 3.456,1.15201 5.504,1.152 2.0053,10e-6 3.8186,-0.38399 5.44,-1.152 1.6213,-0.76799 2.9866,-1.83466 4.096,-3.2 1.152,-1.40799 2.0266,-3.09332 2.624,-5.056 0.5973,-2.00532 0.896,-4.22398 0.896,-6.656 0,-2.43198 -0.2987,-4.62931 -0.896,-6.592 -0.5974,-2.0053 -1.472,-3.69063 -2.624,-5.056 -1.1094,-1.40796 -2.4747,-2.49596 -4.096,-3.264 -1.6214,-0.76796 -3.4347,-1.15196 -5.44,-1.152 -2.048,4e-5 -3.8827,0.38404 -5.504,1.152 -1.6213,0.76804 -3.008,1.85604 -4.16,3.264 -1.1093,1.40803 -1.9627,3.09336 -2.56,5.056 -0.5973,1.96269 -0.896,4.16002 -0.896,6.592 m 34.624,0 c 0,3.79735 -0.576,7.14668 -1.728,10.048 -1.1094,2.90134 -2.6454,5.33334 -4.608,7.296 -1.92,1.92 -4.1814,3.37067 -6.784,4.352 -2.6027,0.98133 -5.376,1.472 -8.32,1.472 -2.944,0 -5.7387,-0.49067 -8.384,-1.472 -2.6027,-0.98133 -4.8853,-2.432 -6.848,-4.352 -1.92,-1.96266 -3.456,-4.39466 -4.608,-7.296 -1.152,-2.90132 -1.728,-6.25065 -1.728,-10.048 0,-3.79731 0.576,-7.1253 1.728,-9.984 1.152,-2.9013 2.7093,-5.3333 4.672,-7.296 2.0053,-1.96263 4.3093,-3.43462 6.912,-4.416 2.6026,-0.98129 5.3546,-1.47195 8.256,-1.472 2.9013,5e-5 5.6533,0.49071 8.256,1.472 2.6026,0.98138 4.864,2.45337 6.784,4.416 1.9626,1.9627 3.52,4.3947 4.672,7.296 1.152,2.8587 1.728,6.18669 1.728,9.984"
               style="font-size:64px;font-weight:500;text-align:end;text-anchor:end;-inkscape-font-specification:Ubuntu Medium"
               id="path3600" /><path
               d="m 1397.0268,-333.34478 c 0,2.43202 0.2987,4.65068 0.896,6.656 0.5973,1.96268 1.4507,3.64801 2.56,5.056 1.152,1.36534 2.5387,2.43201 4.16,3.2 1.6213,0.76801 3.456,1.15201 5.504,1.152 2.0053,10e-6 3.8186,-0.38399 5.44,-1.152 1.6213,-0.76799 2.9866,-1.83466 4.096,-3.2 1.152,-1.40799 2.0266,-3.09332 2.624,-5.056 0.5973,-2.00532 0.896,-4.22398 0.896,-6.656 0,-2.43198 -0.2987,-4.62931 -0.896,-6.592 -0.5974,-2.0053 -1.472,-3.69063 -2.624,-5.056 -1.1094,-1.40796 -2.4747,-2.49596 -4.096,-3.264 -1.6214,-0.76796 -3.4347,-1.15196 -5.44,-1.152 -2.048,4e-5 -3.8827,0.38404 -5.504,1.152 -1.6213,0.76804 -3.008,1.85604 -4.16,3.264 -1.1093,1.40803 -1.9627,3.09336 -2.56,5.056 -0.5973,1.96269 -0.896,4.16002 -0.896,6.592 m 34.624,0 c 0,3.79735 -0.576,7.14668 -1.728,10.048 -1.1094,2.90134 -2.6454,5.33334 -4.608,7.296 -1.92,1.92 -4.1814,3.37067 -6.784,4.352 -2.6027,0.98133 -5.376,1.472 -8.32,1.472 -2.944,0 -5.7387,-0.49067 -8.384,-1.472 -2.6027,-0.98133 -4.8853,-2.432 -6.848,-4.352 -1.92,-1.96266 -3.456,-4.39466 -4.608,-7.296 -1.152,-2.90132 -1.728,-6.25065 -1.728,-10.048 0,-3.79731 0.576,-7.1253 1.728,-9.984 1.152,-2.9013 2.7093,-5.3333 4.672,-7.296 2.0053,-1.96263 4.3093,-3.43462 6.912,-4.416 2.6026,-0.98129 5.3546,-1.47195 8.256,-1.472 2.9013,5e-5 5.6533,0.49071 8.256,1.472 2.6026,0.98138 4.864,2.45337 6.784,4.416 1.9626,1.9627 3.52,4.3947 4.672,7.296 1.152,2.8587 1.728,6.18669 1.728,9.984"
               style="font-size:64px;font-weight:500;text-align:end;text-anchor:end;-inkscape-font-specification:Ubuntu Medium"
               id="path3602" /><path
               d="m 1468.4668,-318.11278 0,6.976 -28.032,0 0,-44.352 8.064,0 0,37.376 19.968,0"
               style="font-size:64px;font-weight:500;text-align:end;text-anchor:end;-inkscape-font-specification:Ubuntu Medium"
               id="path3604" /><path
               d="m 784.61267,-248.73678 c -2e-5,-3.49865 -0.44802,-6.01598 -1.344,-7.552 -0.85335,-1.57864 -2.47469,-2.36797 -4.864,-2.368 -0.85335,3e-5 -1.79202,0.064 -2.816,0.192 -1.02401,0.12803 -1.79201,0.23469 -2.304,0.32 l 0,27.008 -7.744,0 0,-32.384 c 1.49333,-0.42663 3.43466,-0.83197 5.824,-1.216 2.43199,-0.38397 4.99199,-0.57597 7.68,-0.576 2.30398,3e-5 4.18131,0.2987 5.632,0.896 1.49331,0.59737 2.73064,1.3867 3.712,2.368 0.46931,-0.3413 1.06664,-0.70397 1.792,-1.088 0.7253,-0.38397 1.53597,-0.7253 2.432,-1.024 0.89597,-0.3413 1.83463,-0.61863 2.816,-0.832 1.02397,-0.2133 2.04796,-0.31997 3.072,-0.32 2.60263,3e-5 4.73596,0.38403 6.4,1.152 1.70662,0.72537 3.02929,1.7707 3.968,3.136 0.98128,1.3227 1.64262,2.94403 1.984,4.864 0.38395,1.87736 0.57595,3.94669 0.576,6.208 l 0,18.816 -7.744,0 0,-17.6 c -4e-5,-3.49865 -0.42671,-6.01598 -1.28,-7.552 -0.85337,-1.57864 -2.49604,-2.36797 -4.928,-2.368 -1.23737,3e-5 -2.4107,0.21336 -3.52,0.64 -1.10936,0.38403 -1.94136,0.76803 -2.496,1.152 0.3413,1.06669 0.57597,2.19736 0.704,3.392 0.12797,1.19469 0.19197,2.47469 0.192,3.84 l 0,18.496 -7.744,0 0,-17.6"
               style="font-size:64px;font-weight:500;text-align:end;text-anchor:end;-inkscape-font-specification:Ubuntu Medium"
               id="path3606" /><path
               d="m 832.69167,-236.57678 c 2.38932,1e-5 4.20265,-0.12799 5.44,-0.384 l 0,-8.576 c -0.42669,-0.12799 -1.04535,-0.25599 -1.856,-0.384 -0.81069,-0.12798 -1.70668,-0.19198 -2.688,-0.192 -0.85335,2e-5 -1.72801,0.064 -2.624,0.192 -0.85335,0.12801 -1.64268,0.36268 -2.368,0.704 -0.68268,0.34135 -1.23734,0.83201 -1.664,1.472 -0.42668,0.59735 -0.64001,1.36534 -0.64,2.304 -10e-6,1.83468 0.57599,3.11467 1.728,3.84 1.15199,0.68267 2.70932,1.02401 4.672,1.024 m -0.64,-28.864 c 2.55998,3e-5 4.71465,0.32003 6.464,0.96 1.74931,0.64003 3.13598,1.53603 4.16,2.688 1.06664,1.15203 1.81331,2.56003 2.24,4.224 0.4693,1.62136 0.70397,3.41336 0.704,5.376 l 0,20.288 c -1.19469,0.256 -3.00803,0.55467 -5.44,0.896 -2.38935,0.384 -5.09868,0.576 -8.128,0.576 -2.00535,0 -3.84001,-0.192 -5.504,-0.576 -1.66401,-0.384 -3.09334,-1.00267 -4.288,-1.856 -1.152,-0.85333 -2.06934,-1.96266 -2.752,-3.328 -0.64,-1.36533 -0.96,-3.05066 -0.96,-5.056 0,-1.91999 0.36266,-3.54132 1.088,-4.864 0.768,-1.32265 1.792,-2.38932 3.072,-3.2 1.27999,-0.85331 2.75199,-1.45065 4.416,-1.792 1.70665,-0.38398 3.47732,-0.57598 5.312,-0.576 0.85332,2e-5 1.74932,0.064 2.688,0.192 0.93865,0.0854 1.94131,0.25602 3.008,0.512 l 0,-1.28 c -2e-5,-0.89598 -0.10669,-1.74931 -0.32,-2.56 -0.21335,-0.81064 -0.59735,-1.51464 -1.152,-2.112 -0.51202,-0.63997 -1.21602,-1.13064 -2.112,-1.472 -0.85335,-0.34131 -1.94135,-0.51197 -3.264,-0.512 -1.79201,3e-5 -3.43468,0.12803 -4.928,0.384 -1.49334,0.25603 -2.70934,0.55469 -3.648,0.896 l -0.96,-6.272 c 0.98133,-0.3413 2.41066,-0.68263 4.288,-1.024 1.87732,-0.3413 3.88265,-0.51197 6.016,-0.512"
               style="font-size:64px;font-weight:500;text-align:end;text-anchor:end;-inkscape-font-specification:Ubuntu Medium"
               id="path3608" /><path
               d="m 861.12067,-247.96878 c -10e-6,3.41335 0.81066,6.10134 2.432,8.064 1.62132,1.92001 3.86132,2.88001 6.72,2.88 1.23731,1e-5 2.28265,-0.0427 3.136,-0.128 0.89598,-0.12799 1.62131,-0.25599 2.176,-0.384 l 0,-19.2 c -0.68269,-0.46931 -1.60002,-0.89597 -2.752,-1.28 -1.10935,-0.42664 -2.30402,-0.63997 -3.584,-0.64 -2.81602,3e-5 -4.88535,0.96003 -6.208,2.88 -1.28001,1.92002 -1.92001,4.52269 -1.92,7.808 m 22.208,15.808 c -1.53603,0.46933 -3.47736,0.896 -5.824,1.28 -2.30402,0.384 -4.73602,0.576 -7.296,0.576 -2.64535,0 -5.01335,-0.40533 -7.104,-1.216 -2.09068,-0.81067 -3.88267,-1.96266 -5.376,-3.456 -1.45067,-1.53599 -2.58134,-3.37066 -3.392,-5.504 -0.768,-2.17599 -1.152,-4.60799 -1.152,-7.296 0,-2.64531 0.32,-5.03464 0.96,-7.168 0.68266,-2.17597 1.664,-4.03197 2.944,-5.568 1.27999,-1.53597 2.83732,-2.7093 4.672,-3.52 1.83465,-0.8533 3.94665,-1.27997 6.336,-1.28 1.62131,3e-5 3.05065,0.19203 4.288,0.576 1.23731,0.38403 2.30398,0.8107 3.2,1.28 l 0,-16.064 7.744,-1.28 0,48.64"
               style="font-size:64px;font-weight:500;text-align:end;text-anchor:end;-inkscape-font-specification:Ubuntu Medium"
               id="path3610" /><path
               d="m 891.30967,-247.71278 c 0,-2.94398 0.42666,-5.52531 1.28,-7.744 0.896,-2.21864 2.06933,-4.0533 3.52,-5.504 1.45066,-1.4933 3.11466,-2.60263 4.992,-3.328 1.87732,-0.76797 3.79732,-1.15197 5.76,-1.152 4.60798,3e-5 8.19197,1.42937 10.752,4.288 2.60264,2.85869 3.90397,7.12536 3.904,12.8 -3e-5,0.42668 -0.0214,0.91735 -0.064,1.472 -3e-5,0.51202 -0.0214,0.98135 -0.064,1.408 l -22.08,0 c 0.21332,2.68801 1.15199,4.77868 2.816,6.272 1.70665,1.45067 4.15998,2.17601 7.36,2.176 1.87731,1e-5 3.58398,-0.17066 5.12,-0.512 1.57864,-0.34133 2.81597,-0.70399 3.712,-1.088 l 1.024,6.336 c -0.4267,0.21333 -1.02403,0.448 -1.792,0.704 -0.72536,0.21333 -1.57869,0.40533 -2.56,0.576 -0.93869,0.21333 -1.96269,0.384 -3.072,0.512 -1.10936,0.128 -2.24002,0.192 -3.392,0.192 -2.94402,0 -5.50401,-0.42667 -7.68,-1.28 -2.17601,-0.896 -3.96801,-2.112 -5.376,-3.648 -1.408,-1.57866 -2.45334,-3.41333 -3.136,-5.504 -0.68267,-2.13332 -1.024,-4.45865 -1.024,-6.976 m 22.464,-3.456 c -2e-5,-1.06665 -0.14936,-2.06931 -0.448,-3.008 -0.29869,-0.98131 -0.74669,-1.81331 -1.344,-2.496 -0.55469,-0.72531 -1.25869,-1.27997 -2.112,-1.664 -0.81069,-0.42664 -1.79202,-0.63997 -2.944,-0.64 -1.19468,3e-5 -2.24002,0.23469 -3.136,0.704 -0.89601,0.42669 -1.66401,1.00269 -2.304,1.728 -0.59735,0.72536 -1.06668,1.55736 -1.408,2.496 -0.34134,0.93869 -0.57601,1.89869 -0.704,2.88 l 14.4,0"
               style="font-size:64px;font-weight:500;text-align:end;text-anchor:end;-inkscape-font-specification:Ubuntu Medium"
               id="path3612" /><path
               d="m 964.50867,-252.19278 c -0.98136,3.75468 -2.04802,7.42401 -3.2,11.008 -1.10935,3.54134 -2.21869,6.89067 -3.328,10.048 l -6.336,0 c -0.85334,-1.96266 -1.74934,-4.20266 -2.688,-6.72 -0.93867,-2.51732 -1.87734,-5.20532 -2.816,-8.064 -0.93867,-2.85865 -1.87734,-5.86665 -2.816,-9.024 -0.93867,-3.15731 -1.856,-6.37864 -2.752,-9.664 l 8.192,0 c 0.38399,1.79203 0.83199,3.73336 1.344,5.824 0.51199,2.04803 1.04532,4.16002 1.6,6.336 0.55465,2.13335 1.13065,4.22402 1.728,6.272 0.59732,2.04801 1.19465,3.92534 1.792,5.632 0.63998,-1.96266 1.25865,-3.98932 1.856,-6.08 0.63998,-2.09065 1.23732,-4.18131 1.792,-6.272 0.55465,-2.09064 1.06665,-4.11731 1.536,-6.08 0.51198,-2.0053 0.95998,-3.88263 1.344,-5.632 l 5.952,0 c 0.38397,1.74937 0.81064,3.6267 1.28,5.632 0.4693,1.96269 0.95997,3.98936 1.472,6.08 0.55464,2.09069 1.13064,4.18135 1.728,6.272 0.63997,2.09068 1.27997,4.11734 1.92,6.08 0.55463,-1.70666 1.13063,-3.58399 1.728,-5.632 0.5973,-2.04798 1.1733,-4.13865 1.728,-6.272 0.5973,-2.17598 1.15196,-4.28797 1.664,-6.336 0.51196,-2.09064 0.95996,-4.03197 1.344,-5.824 l 8,0 c -0.89605,3.28536 -1.81338,6.50669 -2.752,9.664 -0.93871,3.15735 -1.87738,6.16535 -2.816,9.024 -0.93871,2.85868 -1.87737,5.54668 -2.816,8.064 -0.93871,2.51734 -1.85604,4.75734 -2.752,6.72 l -6.272,0 c -1.10936,-3.15733 -2.26136,-6.50666 -3.456,-10.048 -1.15203,-3.58399 -2.21869,-7.25332 -3.2,-11.008"
               style="font-size:64px;font-weight:500;text-align:end;text-anchor:end;-inkscape-font-specification:Ubuntu Medium"
               id="path3614" /><path
               d="m 1002.2237,-231.13678 -7.74403,0 0,-33.472 7.74403,0 0,33.472 m 0.832,-43.264 c 0,1.45071 -0.4694,2.60271 -1.408,3.456 -0.9387,0.85337 -2.04804,1.28004 -3.32803,1.28 -1.32267,4e-5 -2.45334,-0.42663 -3.392,-1.28 -0.93867,-0.85329 -1.408,-2.00529 -1.408,-3.456 0,-1.49329 0.46933,-2.66662 1.408,-3.52 0.93866,-0.85329 2.06933,-1.27995 3.392,-1.28 1.27999,5e-5 2.38933,0.42671 3.32803,1.28 0.9386,0.85338 1.408,2.02671 1.408,3.52"
               style="font-size:64px;font-weight:500;text-align:end;text-anchor:end;-inkscape-font-specification:Ubuntu Medium"
               id="path3616" /><path
               d="m 1011.6567,-273.44078 7.744,-1.28 0,10.112 11.904,0 0,6.464 -11.904,0 0,13.632 c 0,2.68801 0.4266,4.60801 1.28,5.76 0.8533,1.15201 2.304,1.72801 4.352,1.728 1.408,1e-5 2.6453,-0.14933 3.712,-0.448 1.1093,-0.29866 1.9839,-0.57599 2.624,-0.832 l 1.28,6.144 c -0.8961,0.384 -2.0694,0.768 -3.52,1.152 -1.4507,0.42667 -3.1574,0.64 -5.12,0.64 -2.3894,0 -4.3947,-0.32 -6.016,-0.96 -1.5787,-0.64 -2.8374,-1.55733 -3.776,-2.752 -0.9387,-1.23733 -1.6,-2.70933 -1.984,-4.416 -0.384,-1.74932 -0.576,-3.73332 -0.576,-5.952 l 0,-28.992"
               style="font-size:64px;font-weight:500;text-align:end;text-anchor:end;-inkscape-font-specification:Ubuntu Medium"
               id="path3618" /><path
               d="m 1038.7907,-231.13678 0,-48.384 7.744,-1.28 0,16.576 c 0.8533,-0.29863 1.8346,-0.55463 2.944,-0.768 1.152,-0.2133 2.2826,-0.31997 3.392,-0.32 2.6879,3e-5 4.9066,0.38403 6.656,1.152 1.7919,0.72537 3.2213,1.7707 4.288,3.136 1.0666,1.3227 1.8133,2.92269 2.24,4.8 0.4693,1.87736 0.7039,3.96802 0.704,6.272 l 0,18.816 -7.744,0 0,-17.6 c -10e-5,-1.79198 -0.1281,-3.30665 -0.384,-4.544 -0.2134,-1.27998 -0.5974,-2.30398 -1.152,-3.072 -0.5121,-0.81064 -1.2161,-1.38664 -2.112,-1.728 -0.896,-0.38397 -2.0054,-0.57597 -3.328,-0.576 -1.024,3e-5 -2.0694,0.10669 -3.136,0.32 -1.0667,0.21336 -1.856,0.40536 -2.368,0.576 l 0,26.624 -7.744,0"
               style="font-size:64px;font-weight:500;text-align:end;text-anchor:end;-inkscape-font-specification:Ubuntu Medium"
               id="path3620" /><path
               d="m 1102.5637,-230.49678 c -2.304,-0.0427 -4.224,-0.29867 -5.76,-0.768 -1.4934,-0.46933 -2.688,-1.13067 -3.584,-1.984 -0.896,-0.896 -1.536,-1.984 -1.92,-3.264 -0.3414,-1.32266 -0.512,-2.81599 -0.512,-4.48 l 0,-38.528 7.744,-1.28 0,38.336 c 0,0.93868 0.064,1.72801 0.192,2.368 0.1706,0.64001 0.448,1.19467 0.832,1.664 0.384,0.42667 0.896,0.76801 1.536,1.024 0.6826,0.21334 1.536,0.38401 2.56,0.512 l -1.088,6.4"
               style="font-size:64px;font-weight:500;text-align:end;text-anchor:end;-inkscape-font-specification:Ubuntu Medium"
               id="path3622" /><path
               d="m 1140.1877,-247.90478 c -10e-5,2.64535 -0.3841,5.05601 -1.152,7.232 -0.7681,2.17601 -1.8561,4.03201 -3.264,5.568 -1.4081,1.536 -3.1147,2.73067 -5.12,3.584 -1.9627,0.85333 -4.1387,1.28 -6.528,1.28 -2.3894,0 -4.5654,-0.42667 -6.528,-1.28 -1.9627,-0.85333 -3.648,-2.048 -5.056,-3.584 -1.408,-1.53599 -2.5174,-3.39199 -3.328,-5.568 -0.768,-2.17599 -1.152,-4.58665 -1.152,-7.232 0,-2.64531 0.384,-5.03464 1.152,-7.168 0.8106,-2.17597 1.92,-4.03197 3.328,-5.568 1.4506,-1.53597 3.1573,-2.7093 5.12,-3.52 1.9626,-0.8533 4.1173,-1.27997 6.464,-1.28 2.3466,3e-5 4.5013,0.4267 6.464,1.28 2.0053,0.8107 3.7119,1.98403 5.12,3.52 1.4079,1.53603 2.4959,3.39203 3.264,5.568 0.8106,2.13336 1.2159,4.52269 1.216,7.168 m -7.936,0 c -10e-5,-3.32798 -0.7254,-5.95198 -2.176,-7.872 -1.4081,-1.96264 -3.3921,-2.94397 -5.952,-2.944 -2.56,3e-5 -4.5654,0.98136 -6.016,2.944 -1.408,1.92002 -2.112,4.54402 -2.112,7.872 0,3.37068 0.704,6.03734 2.112,8 1.4506,1.96267 3.456,2.94401 6.016,2.944 2.5599,1e-5 4.5439,-0.98133 5.952,-2.944 1.4506,-1.96266 2.1759,-4.62932 2.176,-8"
               style="font-size:64px;font-weight:500;text-align:end;text-anchor:end;-inkscape-font-specification:Ubuntu Medium"
               id="path3624" /><path
               d="m 1155.9737,-231.13678 c -2.1333,-4.39466 -4.3306,-9.42932 -6.592,-15.104 -2.2186,-5.71731 -4.2453,-11.83997 -6.08,-18.368 l 8.256,0 c 0.4694,1.87737 1.0027,3.90403 1.6,6.08 0.64,2.13336 1.3013,4.28802 1.984,6.464 0.7253,2.13335 1.4507,4.22402 2.176,6.272 0.768,2.00535 1.472,3.81868 2.112,5.44 0.64,-1.62132 1.3227,-3.43465 2.048,-5.44 0.7253,-2.04798 1.4293,-4.13865 2.112,-6.272 0.7253,-2.17598 1.408,-4.33064 2.048,-6.464 0.64,-2.17597 1.1947,-4.20263 1.664,-6.08 l 8,0 c -1.8347,6.52803 -3.8827,12.65069 -6.144,18.368 -2.2187,5.67468 -4.3947,10.70934 -6.528,15.104 l -6.656,0"
               style="font-size:64px;font-weight:500;text-align:end;text-anchor:end;-inkscape-font-specification:Ubuntu Medium"
               id="path3626" /><path
               d="m 1178.3988,-247.71278 c 0,-2.94398 0.4266,-5.52531 1.28,-7.744 0.896,-2.21864 2.0693,-4.0533 3.52,-5.504 1.4506,-1.4933 3.1146,-2.60263 4.992,-3.328 1.8773,-0.76797 3.7973,-1.15197 5.76,-1.152 4.608,3e-5 8.192,1.42937 10.752,4.288 2.6026,2.85869 3.9039,7.12536 3.904,12.8 -10e-5,0.42668 -0.021,0.91735 -0.064,1.472 -10e-5,0.51202 -0.021,0.98135 -0.064,1.408 l -22.08,0 c 0.2133,2.68801 1.152,4.77868 2.816,6.272 1.7066,1.45067 4.16,2.17601 7.36,2.176 1.8773,1e-5 3.584,-0.17066 5.12,-0.512 1.5786,-0.34133 2.816,-0.70399 3.712,-1.088 l 1.024,6.336 c -0.4267,0.21333 -1.024,0.448 -1.792,0.704 -0.7254,0.21333 -1.5787,0.40533 -2.56,0.576 -0.9387,0.21333 -1.9627,0.384 -3.072,0.512 -1.1094,0.128 -2.24,0.192 -3.392,0.192 -2.944,0 -5.504,-0.42667 -7.68,-1.28 -2.176,-0.896 -3.968,-2.112 -5.376,-3.648 -1.408,-1.57866 -2.4534,-3.41333 -3.136,-5.504 -0.6827,-2.13332 -1.024,-4.45865 -1.024,-6.976 m 22.464,-3.456 c 0,-1.06665 -0.1494,-2.06931 -0.448,-3.008 -0.2987,-0.98131 -0.7467,-1.81331 -1.344,-2.496 -0.5547,-0.72531 -1.2587,-1.27997 -2.112,-1.664 -0.8107,-0.42664 -1.792,-0.63997 -2.944,-0.64 -1.1947,3e-5 -2.24,0.23469 -3.136,0.704 -0.896,0.42669 -1.664,1.00269 -2.304,1.728 -0.5974,0.72536 -1.0667,1.55736 -1.408,2.496 -0.3414,0.93869 -0.576,1.89869 -0.704,2.88 l 14.4,0"
               style="font-size:64px;font-weight:500;text-align:end;text-anchor:end;-inkscape-font-specification:Ubuntu Medium"
               id="path3628" /><path
               d="m 1253.8378,-247.96878 c 0,-3.28531 -0.6614,-5.88798 -1.984,-7.808 -1.28,-1.91997 -3.328,-2.87997 -6.144,-2.88 -1.28,3e-5 -2.496,0.19203 -3.648,0.576 -1.1094,0.38403 -2.0054,0.81069 -2.688,1.28 l 0,19.264 c 0.5546,0.12801 1.2586,0.25601 2.112,0.384 0.896,0.0853 1.9626,0.12801 3.2,0.128 2.8586,1e-5 5.0986,-0.95999 6.72,-2.88 1.6213,-1.96266 2.432,-4.65065 2.432,-8.064 m 7.936,0.128 c -10e-5,2.68801 -0.4054,5.12001 -1.216,7.296 -0.7681,2.13334 -1.8987,3.96801 -3.392,5.504 -1.4507,1.536 -3.2214,2.70933 -5.312,3.52 -2.0907,0.81067 -4.4587,1.216 -7.104,1.216 -2.56,0 -5.0134,-0.192 -7.36,-0.576 -2.304,-0.384 -4.224,-0.81067 -5.76,-1.28 l 0,-47.36 7.744,-1.28 0,17.344 c 0.896,-0.4693 1.984,-0.89597 3.264,-1.28 1.3226,-0.38397 2.7733,-0.57597 4.352,-0.576 2.3466,3e-5 4.4373,0.4267 6.272,1.28 1.8773,0.8107 3.4346,1.98403 4.672,3.52 1.2373,1.53603 2.1759,3.39203 2.816,5.568 0.6826,2.13336 1.0239,4.50135 1.024,7.104"
               style="font-size:64px;font-weight:500;text-align:end;text-anchor:end;-inkscape-font-specification:Ubuntu Medium"
               id="path3630" /><path
               d="m 1296.3788,-264.60878 c -3.456,12.71469 -7.4667,24.23468 -12.032,34.56 -0.8533,1.92 -1.728,3.56266 -2.624,4.928 -0.896,1.36533 -1.8987,2.49599 -3.008,3.392 -1.1093,0.89599 -2.3467,1.53599 -3.712,1.92 -1.3653,0.42666 -2.944,0.63999 -4.736,0.64 -1.1947,-1e-5 -2.3893,-0.12801 -3.584,-0.384 -1.152,-0.25601 -2.0267,-0.53334 -2.624,-0.832 l 1.408,-6.208 c 1.536,0.59733 3.0507,0.89599 4.544,0.896 2.0053,-1e-5 3.5627,-0.49067 4.672,-1.472 1.152,-0.93867 2.1547,-2.41067 3.008,-4.416 -2.432,-4.69333 -4.7787,-9.81332 -7.04,-15.36 -2.2187,-5.54665 -4.2027,-11.43464 -5.952,-17.664 l 8.256,0 c 0.4267,1.79203 0.9387,3.73336 1.536,5.824 0.64,2.09069 1.3227,4.22402 2.048,6.4 0.7253,2.13335 1.4933,4.26668 2.304,6.4 0.8107,2.13335 1.6213,4.11734 2.432,5.952 1.3653,-3.79732 2.6453,-7.82932 3.84,-12.096 1.1946,-4.30931 2.2826,-8.4693 3.264,-12.48 l 8,0"
               style="font-size:64px;font-weight:500;text-align:end;text-anchor:end;-inkscape-font-specification:Ubuntu Medium"
               id="path3632" /><path
               d="m 1336.2478,-248.73678 c 0,-3.49865 -0.448,-6.01598 -1.344,-7.552 -0.8534,-1.57864 -2.4747,-2.36797 -4.864,-2.368 -0.8533,3e-5 -1.792,0.064 -2.816,0.192 -1.024,0.12803 -1.792,0.23469 -2.304,0.32 l 0,27.008 -7.744,0 0,-32.384 c 1.4933,-0.42663 3.4347,-0.83197 5.824,-1.216 2.432,-0.38397 4.992,-0.57597 7.68,-0.576 2.304,3e-5 4.1813,0.2987 5.632,0.896 1.4933,0.59737 2.7306,1.3867 3.712,2.368 0.4693,-0.3413 1.0666,-0.70397 1.792,-1.088 0.7253,-0.38397 1.536,-0.7253 2.432,-1.024 0.896,-0.3413 1.8346,-0.61863 2.816,-0.832 1.024,-0.2133 2.048,-0.31997 3.072,-0.32 2.6026,3e-5 4.736,0.38403 6.4,1.152 1.7066,0.72537 3.0293,1.7707 3.968,3.136 0.9813,1.3227 1.6426,2.94403 1.984,4.864 0.384,1.87736 0.576,3.94669 0.576,6.208 l 0,18.816 -7.744,0 0,-17.6 c 0,-3.49865 -0.4267,-6.01598 -1.28,-7.552 -0.8534,-1.57864 -2.496,-2.36797 -4.928,-2.368 -1.2374,3e-5 -2.4107,0.21336 -3.52,0.64 -1.1094,0.38403 -1.9414,0.76803 -2.496,1.152 0.3413,1.06669 0.576,2.19736 0.704,3.392 0.128,1.19469 0.192,2.47469 0.192,3.84 l 0,18.496 -7.744,0 0,-17.6"
               style="font-size:64px;font-weight:500;text-align:end;text-anchor:end;-inkscape-font-specification:Ubuntu Medium"
               id="path3634" /><path
               d="m 1400.0068,-232.16078 c -1.4934,0.384 -3.4347,0.768 -5.824,1.152 -2.3894,0.42667 -5.0134,0.64 -7.872,0.64 -2.688,0 -4.9493,-0.384 -6.784,-1.152 -1.792,-0.768 -3.2427,-1.83466 -4.352,-3.2 -1.0667,-1.36533 -1.8347,-2.98666 -2.304,-4.864 -0.4693,-1.91999 -0.704,-4.01065 -0.704,-6.272 l 0,-18.752 7.744,0 0,17.536 c 0,3.58401 0.512,6.14401 1.536,7.68 1.0667,1.53601 2.9013,2.30401 5.504,2.304 0.9386,1e-5 1.92,-0.0427 2.944,-0.128 1.0666,-0.0853 1.856,-0.19199 2.368,-0.32 l 0,-27.072 7.744,0 0,32.448"
               style="font-size:64px;font-weight:500;text-align:end;text-anchor:end;-inkscape-font-specification:Ubuntu Medium"
               id="path3636" /><path
               d="m 1433.3498,-259.16878 c -0.8534,0.89603 -1.984,2.15469 -3.392,3.776 -1.3654,1.62136 -2.8374,3.43469 -4.416,5.44 -1.5787,1.96268 -3.1787,4.03201 -4.8,6.208 -1.5787,2.13334 -3.008,4.18134 -4.288,6.144 l 17.28,0 0,6.464 -26.624,0 0,-4.8 c 0.9387,-1.70666 2.112,-3.56266 3.52,-5.568 1.408,-2.00532 2.8587,-4.01065 4.352,-6.016 1.4933,-2.04798 2.9653,-3.98931 4.416,-5.824 1.4933,-1.83464 2.816,-3.43464 3.968,-4.8 l -15.424,0 0,-6.464 25.408,0 0,5.44"
               style="font-size:64px;font-weight:500;text-align:end;text-anchor:end;-inkscape-font-specification:Ubuntu Medium"
               id="path3638" /><path
               d="m 1468.2538,-264.60878 c -3.456,12.71469 -7.4667,24.23468 -12.032,34.56 -0.8533,1.92 -1.728,3.56266 -2.624,4.928 -0.896,1.36533 -1.8987,2.49599 -3.008,3.392 -1.1093,0.89599 -2.3467,1.53599 -3.712,1.92 -1.3653,0.42666 -2.944,0.63999 -4.736,0.64 -1.1947,-1e-5 -2.3893,-0.12801 -3.584,-0.384 -1.152,-0.25601 -2.0267,-0.53334 -2.624,-0.832 l 1.408,-6.208 c 1.536,0.59733 3.0507,0.89599 4.544,0.896 2.0053,-1e-5 3.5627,-0.49067 4.672,-1.472 1.152,-0.93867 2.1547,-2.41067 3.008,-4.416 -2.432,-4.69333 -4.7787,-9.81332 -7.04,-15.36 -2.2187,-5.54665 -4.2027,-11.43464 -5.952,-17.664 l 8.256,0 c 0.4267,1.79203 0.9387,3.73336 1.536,5.824 0.64,2.09069 1.3227,4.22402 2.048,6.4 0.7253,2.13335 1.4933,4.26668 2.304,6.4 0.8107,2.13335 1.6213,4.11734 2.432,5.952 1.3653,-3.79732 2.6453,-7.82932 3.84,-12.096 1.1946,-4.30931 2.2826,-8.4693 3.264,-12.48 l 8,0"
               style="font-size:64px;font-weight:500;text-align:end;text-anchor:end;-inkscape-font-specification:Ubuntu Medium"
               id="path3640" /></g></g></g></g></g></svg>